<svg viewBox="0 0 500 500" xmlns="http://www.w3.org/2000/svg"><g fill="#869d67"><path d="m350.41 292.84c.49.95.85 1.73 1.28 2.48 14.12 24.26 28.25 48.52 42.35 72.79.63 1.08 1.06 2.28 1.62 3.4 1.51 3.04-.42 7.42-4.87 7.98-3.23.41-6.49.57-9.74.73-7.18.35-14.37.44-21.54.97-8.05.6-14.28 4.5-18.59 11.35-4.7 7.46-9.34 14.95-14.05 22.4-.83 1.31-1.73 2.62-2.82 3.69-2.57 2.53-5.97 2.48-8.48-.12-1.01-1.05-1.83-2.33-2.57-3.6-14.36-24.64-28.7-49.29-43.05-73.94-1.86-3.19-1.87-3.1-4.87-.85-2.59 1.94-5.32 3.76-8.15 5.33-3.8 2.11-7.79 1.93-11.8.39-3.77-1.45-7.16-3.53-10.35-5.98-2.5-1.91-2.95-1.83-4.56.93-11.69 20.19-23.38 40.39-35.06 60.58-2.82 4.87-5.6 9.77-8.49 14.6-.79 1.31-1.79 2.56-2.93 3.59-1.99 1.79-4.9 1.91-6.92.15-1.42-1.24-2.63-2.81-3.66-4.41-4.72-7.36-9.38-14.75-13.98-22.19-3.95-6.39-9.71-10.12-17-11.32-3.41-.56-6.95-.38-10.42-.53-6.74-.3-13.47-.57-20.21-.95-1.45-.08-2.96-.35-4.3-.89-2.79-1.15-4.07-3.92-3.1-6.75.64-1.87 1.56-3.68 2.55-5.4 13.75-23.79 27.53-47.57 41.3-71.35.26-.45.51-.9.75-1.36.55-1.07.27-1.9-.82-2.35-1.23-.5-2.53-.83-3.76-1.34-2.79-1.16-5.64-2.23-8.32-3.62-6.29-3.26-8.01-8.88-7.12-15.4.78-5.64 1.91-11.24 3.15-16.79 1.6-7.13-.47-13.12-4.99-18.56-3.6-4.33-7.21-8.66-10.56-13.18-2.27-3.07-3.77-6.57-3.26-10.58.39-3.07 1.49-5.94 3.25-8.42 3.29-4.65 6.88-9.09 10.26-13.68 1.62-2.2 3.23-4.44 4.52-6.84 2.29-4.27 1.94-8.87 1.05-13.43-.92-4.72-2.15-9.39-2.83-14.14-.41-2.89-.38-5.95.11-8.82.83-4.81 4.37-7.73 8.59-9.49 4.97-2.08 10.18-3.59 15.24-5.47 2.49-.92 4.98-1.92 7.28-3.22 4.16-2.34 6.3-6.34 7.97-10.62 2.01-5.17 3.83-10.42 6.02-15.52 1.51-3.5 3.72-6.57 7.43-8.21 3.04-1.35 6.22-1.41 9.38-.86 4.3.75 8.54 1.81 12.81 2.7 2.46.51 4.92 1.06 7.41 1.42 3.49.5 6.63-.09 9.56-2.43 5.09-4.06 10.36-7.92 15.73-11.6 2.48-1.7 5.31-2.93 8.11-4.09 5.23-2.16 10.11-.81 14.47 2.31 4.39 3.14 8.48 6.71 12.81 9.94 2.24 1.66 4.65 3.17 7.15 4.4 3.61 1.78 7.52 1.46 11.32.69 4.79-.97 9.51-2.23 14.29-3.24 1.94-.41 3.95-.6 5.94-.73 6.53-.43 10.98 2.79 13.56 8.47 2.38 5.25 4.39 10.67 6.34 16.1 2.55 7.08 7.3 11.61 14.52 13.79 5.16 1.56 10.27 3.35 15.31 5.29 1.96.75 3.83 1.99 5.47 3.33 4.17 3.42 4.95 8.18 4.28 13.13-.74 5.49-1.81 10.95-3.02 16.36-1.64 7.35.19 13.73 4.67 19.59 3.56 4.64 7.04 9.35 10.41 14.14 1.27 1.8 2.21 3.85 3.11 5.87 2.15 4.84.93 9.39-1.93 13.43-3.03 4.28-6.44 8.31-9.75 12.39-2.15 2.65-4.21 5.34-5.49 8.56-1.46 3.67-1.23 7.42-.6 11.15.99 5.9 2.51 11.74 3.18 17.67.81 7.17-1.04 11.78-8.2 15.43-3.34 1.7-7.03 2.7-10.57 4.02-.53.2-1.06.41-1.82.71zm-1.02-80.17c.34-50.05-38.34-96.11-93.54-99.16-56.58-3.13-103.39 39.93-105.53 95.54-2.1 54.64 38.28 99.28 91.61 103.43 28.26 2.2 53.4-6.35 74.43-25.35 21.91-19.8 32.67-44.92 33.03-74.46z"/><path d="m249.95 297.58c-44.41.19-83.43-35.37-84.77-81.94-1.4-48.3 36.23-85.12 80.19-87.15 48.27-2.22 89.46 35.94 89.17 85.58-.26 44.25-36.04 83.37-84.59 83.51zm-34.66-38.4s.08.01.12.02c0 .44-.04.89 0 1.33.27 2.94 2.47 4.46 5.31 3.6 1.13-.34 2.24-.78 3.29-1.32 4.74-2.45 9.46-4.92 14.16-7.43 2.9-1.55 5.87-2.66 9.19-3.06 4.95-.6 9.57.12 13.99 2.35 1.85.93 3.65 1.97 5.49 2.92 4.08 2.1 8.11 4.31 12.28 6.22 4.37 2.01 6.7-1.09 6.28-4.89-.03-.29-.07-.59-.11-.88-.98-5.99-1.93-11.98-2.94-17.97-1.43-8.45.99-15.66 7.02-21.66 4.04-4.03 8.19-7.94 12.24-11.97.93-.93 1.78-2 2.44-3.14 1.25-2.2.6-4.27-1.68-5.37-1.12-.54-2.36-.94-3.58-1.13-5.92-.93-11.86-1.74-17.79-2.66-8.12-1.26-13.99-5.71-17.73-12.95-2.62-5.06-5.04-10.23-7.61-15.32-.63-1.24-1.38-2.48-2.31-3.5-1.88-2.06-4.05-2.03-5.94.04-.79.86-1.41 1.91-1.94 2.96-2.66 5.29-5.23 10.64-7.9 15.92-3.42 6.76-8.95 11.03-16.27 12.64-5.05 1.11-10.24 1.52-15.37 2.31-2.12.32-4.26.63-6.3 1.23-3.58 1.05-4.44 3.85-2.22 6.88.74 1.01 1.63 1.92 2.53 2.8 3.81 3.74 7.61 7.48 11.47 11.17 5.68 5.44 8.07 12.14 7.36 19.88-.33 3.6-1.15 7.16-1.75 10.73-.58 3.43-1.16 6.85-1.74 10.28z"/></g></svg>