<svg viewBox="0 0 64 64" xmlns="http://www.w3.org/2000/svg"><path d="m60 4h-7v-1c0-1.657-1.343-3-3-3s-3 1.343-3 3v1h-30v-1c0-1.657-1.343-3-3-3s-3 1.343-3 3v1h-7c-2.211 0-4 1.789-4 4v52c0 2.211 1.789 4 4 4h56c2.211 0 4-1.789 4-4v-52c0-2.211-1.789-4-4-4zm-42 49c0 .553-.447 1-1 1h-6c-.553 0-1-.447-1-1v-5c0-.553.447-1 1-1h6c.553 0 1 .447 1 1zm0-11c0 .553-.447 1-1 1h-6c-.553 0-1-.447-1-1v-5c0-.553.447-1 1-1h6c.553 0 1 .447 1 1zm0-11c0 .553-.447 1-1 1h-6c-.553 0-1-.447-1-1v-5c0-.553.447-1 1-1h6c.553 0 1 .447 1 1zm12 22c0 .553-.447 1-1 1h-6c-.553 0-1-.447-1-1v-5c0-.553.447-1 1-1h6c.553 0 1 .447 1 1zm0-11c0 .553-.447 1-1 1h-6c-.553 0-1-.447-1-1v-5c0-.553.447-1 1-1h6c.553 0 1 .447 1 1zm0-11c0 .553-.447 1-1 1h-6c-.553 0-1-.447-1-1v-5c0-.553.447-1 1-1h6c.553 0 1 .447 1 1zm12 22c0 .553-.447 1-1 1h-6c-.553 0-1-.447-1-1v-5c0-.553.447-1 1-1h6c.553 0 1 .447 1 1zm0-11c0 .553-.447 1-1 1h-6c-.553 0-1-.447-1-1v-5c0-.553.447-1 1-1h6c.553 0 1 .447 1 1zm0-11c0 .553-.447 1-1 1h-6c-.553 0-1-.447-1-1v-5c0-.553.447-1 1-1h6c.553 0 1 .447 1 1zm12 11c0 .553-.447 1-1 1h-6c-.553 0-1-.447-1-1v-5c0-.553.447-1 1-1h6c.553 0 1 .447 1 1zm0-11c0 .553-.447 1-1 1h-6c-.553 0-1-.447-1-1v-5c0-.553.447-1 1-1h6c.553 0 1 .447 1 1zm8-16h-60v-7c0-1.104.896-2 2-2h7v4c0 1.657 1.343 3 3 3s3-1.343 3-3v-4h30v4c0 1.657 1.343 3 3 3s3-1.343 3-3v-4h7c1.104 0 2 .896 2 2z"/></svg>