<svg fill="none" height="20" viewBox="0 0 18 20" width="18" xmlns="http://www.w3.org/2000/svg"><path d="m2 20c-.55 0-1.020833-.1958-1.4125-.5875s-.5875-.8625-.5875-1.4125v-14c0-.55.195833-1.02083.5875-1.4125s.8625-.5875 1.4125-.5875h1v-2h2v2h8v-2h2v2h1c.55 0 1.0208.19583 1.4125.5875s.5875.8625.5875 1.4125v14c0 .55-.1958 1.0208-.5875 1.4125s-.8625.5875-1.4125.5875zm0-2h14v-10h-14zm0-12h14v-2h-14zm7 6c-.28333 0-.52083-.0958-.7125-.2875s-.2875-.4292-.2875-.7125.09583-.5208.2875-.7125.42917-.2875.7125-.2875.52083.0958.7125.2875.2875.4292.2875.7125-.09583.5208-.2875.7125-.42917.2875-.7125.2875zm-4 0c-.28333 0-.52083-.0958-.7125-.2875s-.2875-.4292-.2875-.7125.09583-.5208.2875-.7125.42917-.2875.7125-.2875.52083.0958.7125.2875.2875.4292.2875.7125-.09583.5208-.2875.7125-.42917.2875-.7125.2875zm8 0c-.2833 0-.5208-.0958-.7125-.2875s-.2875-.4292-.2875-.7125.0958-.5208.2875-.7125.4292-.2875.7125-.2875.5208.0958.7125.2875.2875.4292.2875.7125-.0958.5208-.2875.7125-.4292.2875-.7125.2875zm-4 4c-.28333 0-.52083-.0958-.7125-.2875s-.2875-.4292-.2875-.7125.09583-.5208.2875-.7125.42917-.2875.7125-.2875.52083.0958.7125.2875.2875.4292.2875.7125-.09583.5208-.2875.7125-.42917.2875-.7125.2875zm-4 0c-.28333 0-.52083-.0958-.7125-.2875s-.2875-.4292-.2875-.7125.09583-.5208.2875-.7125.42917-.2875.7125-.2875.52083.0958.7125.2875.2875.4292.2875.7125-.09583.5208-.2875.7125-.42917.2875-.7125.2875zm8 0c-.2833 0-.5208-.0958-.7125-.2875s-.2875-.4292-.2875-.7125.0958-.5208.2875-.7125.4292-.2875.7125-.2875.5208.0958.7125.2875.2875.4292.2875.7125-.0958.5208-.2875.7125-.4292.2875-.7125.2875z" fill="#fff"/></svg>
