<?xml version="1.0" encoding="UTF-8"?>
<svg id="Ebene_1" data-name="Ebene 1" xmlns="http://www.w3.org/2000/svg" viewBox="0 0 1296.64 874.93">
  <defs>
    <style>
      .cls-1 {
        stroke-width: 0px;
      }
    </style>
  </defs>
  <path class="cls-1" d="M215.17,669.05c-.92,1.01-.66,2.01-.67,2.91-.3,19.67-.58,39.34-.86,59.01-.06,4.32-.02,8.64-.15,12.96-.3,10.39-.88,20.76-1.51,31.14-.59,9.64,1.63,18.74,6.33,27.2,3.82,6.88,8.7,13.03,13.47,19.25,3.8,4.95,7.42,10.02,10.6,15.41,4.09,6.94,7.03,14.35,9.18,22.09.25.92.45,1.87.55,2.82.14,1.31-.4,2.12-1.71,2.5-1.22.36-2.48.66-3.74.86-9.79,1.56-19.52,3.49-29.39,4.54-7.82.83-15.66.63-23.49.41-2.71-.07-5.4-.58-8.1-.81-2.11-.18-3.54-1.17-4.48-3.09-2.12-4.31-4.29-8.59-5.82-13.15-.97-2.9-1.56-5.87-1.56-8.94,0-4.8-.11-9.6.8-14.35.15-.78.15-1.59.27-2.38.35-2.4-.3-4.42-2.17-6.03-1.21-1.04-2.4-2.11-3.57-3.2-1.29-1.2-2.67-2.32-3.78-3.67-2.76-3.36-4.13-7.17-3.17-11.6,1.09-5,2.09-10.02,3.17-15.02,2.05-9.47,2.31-18.99,1.15-28.62-.92-7.62-1.73-15.25-3.22-22.79-.56-2.83-1.27-5.6-2.47-8.25-1.94-4.29-2.36-8.96-3.14-13.51-2.8-16.4-5.02-32.87-7.01-49.39-.94-7.78-1.91-15.56-3.2-23.28-2.07-12.41-1.37-24.49,2.98-36.38,2.31-6.3,4.21-12.74,5.39-19.39,1.1-6.22,1.06-12.45.48-18.65-1.41-15.01-4.72-29.68-8.51-44.24-3.13-12.05-9.31-22.37-18.03-31.22-4.83-4.9-9.73-9.71-14.27-14.9-4.57-5.23-8.37-10.93-11.47-17.08-9.93-19.71-20.09-39.32-28.48-59.77-4.8-11.69-9.33-23.49-13.99-35.23-.28-.71-.32-1.56-1.14-1.97-.68.42-.46,1.1-.44,1.66.12,3.35.08,6.73.46,10.06,1.27,11.12,2.81,22.21,4.02,33.33.64,5.88,1.02,11.8,1.14,17.71.18,8.63.21,17.28-.05,25.91-.23,7.5-.9,15-1.46,22.49-.35,4.78-.39,9.58-.89,14.36-.65,6.19-.99,12.44-1.15,18.66-.25,9.14,1.12,18.17,2.23,27.22.85,6.98,1.81,13.98,2.08,20.99.28,7.36-.81,14.67-2.43,21.88-1.33,5.93-2.52,11.88-3.29,17.92-1.03,8.15-.87,16.28-.18,24.42.54,6.4.38,12.79.26,19.18-.01.63-.19,1.26-.36,1.87-.14.49-.53.8-1.05.75-.28-.03-.66-.24-.77-.47-.6-1.3-1.2-2.61-1.66-3.96-2.95-8.8-5.86-17.61-8.79-26.41-1.41-4.23-2.84-8.46-4.22-12.6-1.32-.09-1.14.77-1.21,1.3-1.29,9.52-2.1,19.04-1.42,28.68.49,6.87-.21,13.75-1.7,20.49-1.74,7.83-4.42,15.37-7.92,22.6-.41.86-.9,1.69-1.42,2.49-.47.73-1.57.57-1.92-.26-.25-.59-.44-1.2-.61-1.81-1.81-6.38-4.86-12.15-8.52-17.64-3.91-5.85-8.04-11.56-11.59-17.65-6.81-11.68-8.73-24.25-6.9-37.49,1.46-10.52,4.67-20.57,8.68-30.37.61-1.48,1.15-2.99,1.85-4.43.99-2.02,1.38-3.87-.45-5.68-.54-.53-.81-1.37-1.14-2.09-1.28-2.76-1.01-5.21,1.24-7.44,2.96-2.92,5.84-5.92,8.69-8.96,5.14-5.48,10.33-10.92,15.1-16.74,2.88-3.51,5.06-7.35,6.52-11.65,3.64-10.67,5.89-21.58,6.18-32.88.05-2.08.31-4.15.41-6.22.09-1.75.17-3.52.11-5.27-.17-4.63-.37-9.27-.67-13.89-.47-7.18-1.03-14.35-1.58-21.52-.36-4.78-.79-9.56-1.12-14.34-.44-6.38-.78-12.77-1.24-19.15-.46-6.38-1.03-12.75-1.54-19.12-.41-5.1-.5-10.21-.96-15.32-.7-7.8-.87-15.64-1.31-23.47-.5-8.94-1.05-17.87-1.58-26.81-.03-.48-.06-.96-.08-1.44-1.2-30.54-1.58-61.09-1.13-91.64.12-8.34,1.59-16.56,3.11-24.73,2.96-15.91,6.99-31.54,12.75-46.69,1.54-4.06,3.47-7.89,5.87-11.51,4.95-7.47,11.73-12.57,20.04-15.73,5.71-2.17,11.62-3.59,17.65-4.46,9.65-1.4,19.35-2.45,29.08-3.15,11.16-.8,22.32-1.68,33.47-2.52.48-.04.96-.07,1.44-.07,15.99-.1,31.97-1.52,47.97-.85,10.23.43,20.47.41,30.69.92,9.26.46,18.52,1.05,27.76,1.85,11.47.99,22.91,2.21,34.36,3.44,12.4,1.33,24.79,2.75,37.17,4.21,8.73,1.03,17.44,2.26,26.18,3.27,7.78.9,15.58,1.63,23.37,2.42,5.09.51,10.18,1.08,15.28,1.47,6.54.5,13.08,1.06,19.63,1.2,10.39.23,20.8.19,31.2.18,9.6-.01,19.16-.89,28.72-1.65.48-.04.96-.09,1.44-.11,9.27-.41,18.53-.78,27.8-1.24,9.58-.48,19.15-1.04,28.73-1.57.48-.03.96-.07,1.44-.09,8.47-.4,16.94-.63,25.39-1.25,12.75-.93,25.5-1.97,38.22-3.31,20.24-2.14,40.13-6.18,60-10.39,21.28-4.51,42.67-8.49,64.17-11.8,13.75-2.11,27.54-3.88,41.39-5.29,20.07-2.05,40.18-2.88,60.35-2.91,12.47-.02,24.96-.24,37.41-.93,18.39-1.02,36.6-3.53,54.55-7.77,17.59-4.16,35.17-8.36,52.6-13.16,6.6-1.82,6.95-2.01,5.49-8.88-2.16-10.17-4.24-20.35-6.26-30.55-.68-3.44-1.06-6.95-1.55-10.43-.48-3.42,1.01-5.84,3.84-7.64,2.04-1.3,4.22-2.29,6.46-3.15,8.4-3.25,17.12-5.24,26-6.57,4.59-.69,9.21-.95,13.86-1.01,13.98-.2,26.87,3.5,38.82,10.64,4.26,2.54,8.47,5.16,12.64,7.84,3.37,2.16,6.89,4.05,10.42,5.93,9.54,5.08,19.69,6.26,30.27,5.05,7.49-.85,14.86-2.24,22.13-4.19,1.7-.45,3.42-.83,5.16-1.09,4.41-.66,8.21.66,11.42,3.74,2.09,2.01,3.8,4.33,5.4,6.73,2.22,3.33,4.42,6.68,6.37,10.16,4.85,8.68,10.65,16.73,16.53,24.71,3.8,5.15,7.65,10.26,11.51,15.36,4.74,6.26,8.99,12.84,12.87,19.66,3.82,6.71,6.76,13.77,8.58,21.29.98,4.04,1.99,8.08,3.13,12.07,1.43,5.01,3.89,9.38,7.84,12.95,7.76,7,13.89,15.45,20.47,23.49,7.6,9.28,15.36,18.43,22.95,27.72,7.69,9.41,15.32,18.89,21.61,29.34,1.49,2.47,2.88,4.99,3.79,7.74,2.05,6.14,1.08,11.63-3.41,16.45-3.62,3.88-7.75,7.16-11.92,10.39-4.45,3.45-8.49,7.35-11.9,11.8-2.72,3.55-6.11,6.05-10.05,7.95-7.28,3.52-15.05,5.35-23,6.47-3.48.49-6.96.98-10.51.91-5.1-.1-9.75-1.53-14.08-4.17-5.4-3.3-9.68-7.83-13.84-12.49-.96-1.07-1.88-2.18-2.82-3.27-1.36-1.59-3.08-2.2-5.14-1.93-3.01.38-6.04.7-9.04,1.12-18.37,2.55-36.75,5.08-55.1,7.73-4.12.6-8.01.11-11.66-1.7-2.39-1.18-4.78-1.69-7.4-1.54-2.24.13-4.48.12-6.72.19-2.26.08-4.46.49-6.53,1.4-9.22,4.07-18.43,8.16-27.62,12.28-1.6.72-3.14,1.58-4.68,2.44-6.13,3.4-11.14,7.97-14.85,13.99-3.36,5.46-6.38,11.09-9.04,16.92-2.99,6.55-5.89,13.15-9.18,19.54-4.46,8.67-9.18,17.22-13.92,25.74-6.53,11.74-13.22,23.39-19.06,35.51-2.92,6.06-5.49,12.25-7.65,18.63-5.9,17.43-12.12,34.74-19.15,51.75-5.5,13.31-11.45,26.42-19,38.73-2.68,4.38-5.72,8.49-8.97,12.45-3.38,4.11-7.42,7.51-11.88,10.39-3.22,2.08-6.51,4.07-9.8,6.04-6.12,3.66-11.25,8.43-15.66,14-5.19,6.55-9.33,13.75-13.15,21.16-1.16,2.26-1.42,4.42-.73,6.91,3.59,13.03,5.21,26.33,5.3,39.83.01,1.76.2,3.51.35,5.26.28,3.04.25,6.07.05,9.11-.18,2.71-.39,5.43-.42,8.14-.11,11.04-.89,22.04-1.84,33.04-.52,6.05-.83,12.12-1.26,18.18-.49,6.86-1.12,13.7-1.52,20.57-.97,16.71-.57,33.25,5.43,49.23,2.35,6.28,4.19,12.76,6.09,19.2,1.35,4.59,2.72,9.22,1.95,14.14-.21,1.31.22,2.57.85,3.69,1.1,1.94,2.21,3.9,3.52,5.7,4.89,6.73,9.86,13.4,14.82,20.08,2.96,3.99,5.44,8.29,7.91,12.59,1.68,2.93,2.87,6.07,3.74,9.33.29,1.08.51,2.18.64,3.29.84,7.27-1.85,12-8.58,14.89-5.66,2.43-11.68,3.27-17.77,3.63-5.62.33-11.2-.36-16.72-1.21-13.18-2.03-25.88-5.88-38.25-10.81-1.63-.65-3.2-1.46-4.74-2.29-3.61-1.94-5.71-5.02-6.6-8.98-.6-2.66-.93-5.36-.93-8.09,0-6.25-.89-12.43-1.53-18.63-.59-5.74-.71-11.47.13-17.22,2.8-19.06,1.02-37.63-6.17-55.6-2.79-6.98-5.38-14.04-8.04-21.07-3.46-9.15-6.31-18.47-7.82-28.15-.84-5.37-1.36-10.77-1.67-16.21-.73-12.47-.39-24.95-.75-37.42-.3-10.45-2.13-20.66-4.94-30.71-.3-1.08-.69-2.13-1.09-3.17-.23-.61-1.18-.67-1.58-.14-1.27,1.68-1.97,3.65-2.71,5.59-2.92,7.67-4.55,15.65-5.72,23.74-1.31,9.02-2.48,18.06-3.85,27.07-.91,6.02-2.35,11.92-4.53,17.63-1.9,5-4.73,9.41-8.22,13.44-2.62,3.02-5.3,6-7.8,9.11-5.24,6.53-9.42,13.67-12.59,21.44-3.33,8.18-6.23,16.46-7.64,25.2-.98,6.04-.98,12.12-.17,18.17.91,6.8,3.88,12.82,7.53,18.53,3.54,5.54,8.03,10.37,11.99,15.59,1.93,2.55,3.8,5.15,5.53,7.83,3.56,5.48,5.32,11.6,5.98,18.05.53,5.18-1.41,8.96-6.17,11.36-5.11,2.58-10.52,3.72-16.17,4.01-8.21.43-16.29-.74-24.31-2.26-10.22-1.94-20.2-4.92-30.24-7.6-2.43-.65-3.8-2-4.49-4.41-1.69-5.85-3.16-11.74-3.67-17.83-.24-2.91.28-5.77,1.2-8.5,2.09-6.23,2.01-12.57,1.18-18.97-.19-1.43-.36-1.65-2.21-1.55-1.02.06-1.52-.23-1.68-1.16-.08-.47-.08-.96-.04-1.43.4-4.47,1.04-8.89,2.26-13.22.84-2.99,2.31-5.63,4.53-7.8,4.62-4.51,7.2-10.12,8.79-16.25,1.78-6.84,2.67-13.82,2.74-20.88.12-12.32.07-24.64.11-36.96.02-5.77.7-11.49,1.74-17.16,1.41-7.65,4.01-14.8,9-20.94,1.21-1.48,2.21-3.14,3.26-4.74,1.15-1.76,1.92-3.68,2.2-5.78,1.79-13.33,5-26.4,7.21-39.65,1.32-7.91,1.98-15.88,1.46-23.89-.45-6.95-2.08-13.57-6.15-19.42-2.43-3.5-5.46-6.23-9.39-7.96-3.82-1.68-7.75-3.03-11.83-3.89-8.31-1.74-16.69-2.88-25.2-3.1-6.07-.16-12.15-.76-18.21-.66-11.83.2-23.66.5-35.46,1.45-6.21.5-12.45.75-18.66,1.25-8.6.69-17.2,1.54-25.8,2.28-16.75,1.43-33.26,4.52-49.86,7.06-7.43,1.14-14.89,2.09-22.37,2.81-10.98,1.05-21.7-.66-32.21-3.78-6.75-2-13.5-3.97-20.33-5.67-7.06-1.76-14.2-2.18-21.43-1.86-2.42.11-4.75.59-7.05,1.33-9.62,3.11-136.89,15.59-137.44,16.58-.31.56-.58,1.14-.82,1.73-6.93,17.65-11.96,35.8-14.17,54.66-1.17,10.02-1.6,20.11-1,30.18.98,16.5,3.68,32.71,8.88,48.47,4.26,12.92,9.27,25.56,14,38.31,4.06,10.95,7.85,22,10.3,33.45.47,2.19.98,4.39,1.18,6.6.25,2.71,1.43,4.83,3.25,6.76,3.41,3.6,6.78,7.24,10.1,10.92,5.07,5.62,9.36,11.75,12,18.93,1.28,3.48,2,7.09,2.34,10.75.31,3.45-.32,4.39-3.58,5.1-10.81,2.35-21.68,4.33-32.81,3.4-11.34-.95-20.93-5.62-28.29-14.42-3.34-3.99-5.31-8.73-6.41-13.8-.44-2.03-.79-4.09-1.01-6.15-.56-5.32-2.74-9.8-6.68-13.43-1.3-1.19-2.51-2.47-3.8-3.67-6.03-5.63-8.96-12.71-9.77-20.8-.4-3.98-.66-7.98-1.24-11.93-1-6.74-3.61-12.94-6.97-18.8-7.17-12.52-13.07-25.64-18.65-38.92-3.03-7.23-6.13-14.43-9.24-21.62-.6-1.39-1.01-2.94-2.27-4.01Z"/>
</svg>