<?xml version="1.0" encoding="UTF-8"?>
<svg id="_Ńëîé_1" data-name="Ńëîé 1" xmlns="http://www.w3.org/2000/svg" viewBox="0 0 1855.78 1663.19">
  <defs>
    <style>
      .cls-1 {
        fill: none;
      }

      .cls-1, .cls-2 {
        stroke: #fff;
        stroke-linecap: round;
        stroke-linejoin: round;
        stroke-width: 41.24px;
      }

      .cls-3, .cls-4 {
        stroke-width: 0px;
      }

      .cls-4 {
        fill: #fff;
      }
    </style>
  </defs>
  <g>
    <g>
      <path class="cls-3" d="M309.48,919.27v630.52c0,60.41,48.97,109.39,109.39,109.39h329.22c4.84,0,8.76-3.92,8.76-8.76v-404.45c0-33.86,27.45-61.31,61.31-61.31h220.27c33.86,0,61.31,27.45,61.31,61.31v404.45c0,4.84,3.92,8.76,8.76,8.76h329.22c60.41,0,109.39-48.97,109.39-109.39v-629.74c0-2.59-1.15-5.05-3.13-6.71L933.51,401.17c-3.26-2.73-8-2.73-11.26,0l-609.65,511.39c-1.98,1.66-3.13,4.12-3.13,6.71Z"/>
      <rect class="cls-3" x="748.08" y="1177.87" width="360.39" height="481.31"/>
    </g>
    <path class="cls-3" d="M1833.88,741.49l-313.07-262.7c-1.98-1.66-3.13-4.12-3.13-6.71V195c0-33.86-27.45-61.31-61.31-61.31h-129.44c-33.86,0-61.31,27.45-61.31,61.31v50.88c0,7.44-8.69,11.49-14.39,6.71L967.3,14.34c-22.79-19.12-56.02-19.12-78.81,0L21.9,741.49c-25.94,21.76-29.32,60.43-7.56,86.37l61.77,73.61c21.76,25.94,60.43,29.32,86.37,7.56L922.26,271.5c3.26-2.73,8-2.73,11.26,0l759.78,637.53c25.94,21.76,64.61,18.38,86.37-7.56l61.77-73.61c21.76-25.94,18.38-64.61-7.56-86.37Z"/>
    <polygon class="cls-3" points="309.48 919.27 309.48 735.81 928.28 215.19 1547.08 758.19 1547.08 938.69 309.48 919.27"/>
  </g>
  <path class="cls-2" d="M1147.04,778.15l-274.1-276.49-354.49,357.59,273.45,275.84c17.52,17.67,43.46,23.81,66.94,15.83l51.76-17.58c67.7-23,142.45-2.06,188.71,52.85l70.86,84.12,130.41,131.55c32.37,32.65,84.85,32.65,117.21,0h0c32.42-32.7,32.36-85.73-.12-118.36l-130.6-131.12-85.36-73.16c-53.45-45.81-74.52-119.45-53.49-186.95l14.91-47.86c7.28-23.39,1.08-48.92-16.1-66.25Z"/>
  <line class="cls-1" x1="1009.61" y1="641.54" x2="655.13" y2="999.12"/>
  <path class="cls-4" d="M492,1194.34c43.18,0,78.3-38.69,78.3-86.25,0-26.11-13.08-47.37-24.63-66.12-1.07-1.74-2.14-3.48-3.19-5.2-13.47-22.15-26.54-45.71-38.84-70.03-2.11-4.16-6.34-6.82-11.01-6.89-4.7-.08-8.99,2.44-11.22,6.54-12.97,23.73-26.51,47.52-40.25,70.72-1.36,2.3-2.76,4.6-4.16,6.91-10.93,18.04-23.32,38.48-23.32,64.07,0,47.56,35.13,86.26,78.3,86.26Z"/>
  <path class="cls-4" d="M866.77,916.26c-19.57,12.9-39.15,25.8-58.72,38.7-6.42,4.23-.42,14.63,6.06,10.36,19.57-12.9,39.15-25.8,58.72-38.7,6.42-4.23.42-14.63-6.06-10.36h0Z"/>
  <path class="cls-4" d="M865.97,886.82c-11.85,15.49-25.97,29.32-41.68,40.87-6.16,4.53-.18,14.95,6.06,10.36,17.5-12.87,32.79-27.92,45.98-45.17,4.69-6.13-5.73-12.12-10.36-6.06h0Z"/>
  <path class="cls-4" d="M946.2,936.53c-9.58-10.38-20.79-19.29-32.36-27.32-11.79-8.19-24.7-13.71-37.95-19.13l28.69,70.51c4.36-8.8,9.55-17.08,15.55-24.86l-7.51,9.71c7.45-9.43,15.92-17.86,25.4-25.23l-9.71,7.51c1.73-1.32,3.49-2.6,5.27-3.85-19.39-25.13-38.78-50.26-58.17-75.39-6.27,7.2-13.15,13.74-20.65,19.64l9.71-7.51c-8.46,6.5-17.51,12.05-27.15,16.63,23.5,18.07,47.01,36.14,70.51,54.21,5.46-19.27,12.09-38.16,19.86-56.63l-4.84,11.47c3.92-9.21,8.1-18.3,12.56-27.27,5.78-11.63,8.38-24.14,4.84-36.99-3.07-11.13-11.67-23.2-22.06-28.69-11.14-5.89-24.64-8.84-36.99-4.84-12.27,3.97-21.53,11.22-28.69,22.06-5.68,8.59-11.68,16.95-17.95,25.12l7.51-9.71c-16.91,21.83-35.64,42.14-54.88,61.92-18.18,18.68-36.46,37.5-57.11,53.49l9.71-7.51c-12.52,9.55-25.84,17.87-40.35,24.07,3.82-1.61,7.64-3.23,11.47-4.84l-1.56.65c-7.73,3.19-15.13,6.3-21.18,12.34-7.51,7.51-11.8,17.16-13.2,27.56-2.53,18.8,6.2,38.08,22.92,47.83,10.48,6.11,22.13,10.07,33.99,12.39,7.88,1.54,15.74,2.86,23.25,5.8l-11.47-4.84c3.58,1.51,6.9,3.31,10.01,5.65-3.24-2.5-6.48-5-9.71-7.51,1.85,1.52,3.47,3.13,4.98,4.99l-7.51-9.71c1.62,2.23,2.87,4.55,3.95,7.09l-4.84-11.47c3.35,8.5,5.9,16.95,9.76,25.34,5.37,11.65,14.41,19.94,24.81,27.02,9.47,6.45,26.21,8.33,36.99,4.84,10.12-3.27,18.4-8.75,24.93-17.2s10.78-18.57,10.31-29.08c-.53-11.78-4.28-26.35-14.06-33.94-6.39-4.96-12.06-10.59-17.08-16.94l7.51,9.71c-4.91-6.43-8.98-13.3-12.22-20.72-2.5,19.39-5,38.78-7.51,58.17,5.49-4.96,11.15-9.7,16.99-14.24l-9.71,7.51c19.43-14.93,40.61-27.32,63.14-36.93l-11.47,4.84c7.87-3.3,15.86-6.27,23.98-8.89-18.07-23.5-36.14-47.01-54.21-70.51-7.42,14.68-15.23,29.16-23.46,43.4-7.92,13.7-15.82,27.83-25.18,40.62l7.51-9.71c-1.55,1.99-3.18,3.81-5.08,5.47l9.71-7.51c-1.59,1.21-3.15,2.15-4.99,2.93l11.47-4.84c-.91.34-1.84.58-2.8.73l12.76-1.71c-1.46.15-2.72.16-4.18.03l12.76,1.71c-1.43-.26-2.69-.6-4.06-1.09l11.47,4.84c-1.79-.8-3.37-1.73-4.95-2.88l9.71,7.51c-1.52-1.27-2.83-2.6-4.08-4.13l7.51,9.71c-1.21-1.69-2.17-3.41-3.04-5.3l4.84,11.47c-1.43-3.57-2.26-7.14-2.79-10.95l1.71,12.76c-.4-3.6-.82-7.41-.47-11.02l-1.71,12.76.36-1.24-4.84,11.47c.28-.77.7-1.45,1.25-2.06-5.74,5.74-11.48,11.48-17.22,17.22l.8-.57c-8.08,2.18-16.15,4.37-24.23,6.55l.85-.11-24.23-6.55.86.47c-7.92-13.82-15.85-27.63-23.77-41.45,1.27,27.65,8.99,55.78,24.7,78.83,7.83,11.5,16.74,22.79,27.64,31.56,6.58,5.29,13.27,10.88,20.95,14.53,12.56,5.97,23.04,8.86,36.92,10.1,18.09,1.62,35.68-4.48,51.78-11.95,4.6-2.13,9.03-4.63,13.21-7.5,7.41-5.09,15.08-10.67,21.08-17.46,19.8-22.4,26.95-52.21,35.59-80.12,7.51-24.27,15.05-48.57,24.87-72.03l-4.84,11.47c8.34-19.67,18.61-37.88,30.6-55.53,15.34-22.58,27.76-47.27,27.72-75.27-.02-12.32-5.34-25.23-14.06-33.94-8.33-8.33-21.98-14.59-33.94-14.06-25.98,1.16-48.03,21.09-48,48,0,2.66-.16,5.27-.5,7.91l1.71-12.76c-.83,5.22-2.31,10.18-4.29,15.07l4.84-11.47c-6.94,16.19-18.27,29.86-27.39,44.8-11.53,18.89-20.31,39.38-28.36,59.95-6.82,17.42-12.52,35.24-18.07,53.1-5.53,17.78-10.35,36.07-17.38,53.33l4.84-11.47c-2.07,4.82-4.5,9.35-7.66,13.55,2.5-3.24,5-6.48,7.51-9.71-2.88,3.51-6.11,6.52-9.69,9.29l9.71-7.51c-5.47,4.02-11.3,7.4-17.5,10.15l11.47-4.84c-5.21,2.17-10.51,3.75-16.11,4.56l12.76-1.71c-3.89.42-7.65.43-11.53-.05,4.25.57,8.51,1.14,12.76,1.71-3.31-.56-6.42-1.44-9.54-2.68,3.82,1.61,7.64,3.23,11.47,4.84-4.6-2.03-8.76-4.64-12.74-7.69l9.71,7.51c-6.33-5.08-11.9-10.9-16.86-17.31,2.5,3.24,5,6.48,7.51,9.71-5.46-7.27-9.96-15.1-13.51-23.47l4.84,11.47c-3.43-8.42-5.8-17.13-7.08-26.13l1.71,12.76c-.4-3.18-.58-6.35-.82-9.54-.97-12.63-4.89-24.77-14.06-33.94-7.68-7.68-17.81-12.25-28.42-13.67-17.75-2.38-34.78,4.58-45.72,18.75-7.6,9.84-11.75,20.96-12.03,33.6-.07,3.26.23,6.57.59,9.8.77,6.99,1.31,14.68,3.64,21.45,2.16,6.25,4.58,12.9,8.32,18.43,6.4,9.48,12.46,15.36,21.72,21.94,5.2,3.7,11.73,6.48,17.75,8.2,8.92,2.54,17.12,2.64,26.05,1.44,15.21-2.04,30.17-9.62,39.97-21.74,11.76-14.56,21.33-30.7,30.77-46.83s17.71-31.41,25.84-47.5c8.88-17.56,8.58-37.35-3.75-53.31-5.24-6.78-11.31-11.45-19.2-14.78-9.54-4.03-21.12-5.69-31.25-2.42-46.7,15.08-88.88,39.55-125.29,72.41-2.5,3.24-5,6.48-7.51,9.71-3.51,5.51-5.41,11.46-5.7,17.85-1.14,4.25-1.14,8.51,0,12.76.29,6.39,2.19,12.34,5.7,17.85,4.11,9.42,9.71,17.47,15.97,25.58s12.72,15.49,20.84,21.79c19.39-25.13,38.78-50.26,58.17-75.39l-1.07-.72,9.71,7.51c-1.33-1.07-2.43-2.2-3.49-3.54l7.51,9.71c-1.22-1.76-2.18-3.58-3.04-5.53l4.84,11.47c-3.9-9.62-6.41-19.74-11.45-28.93-6.63-12.1-18.26-23.21-30.51-29.53-9.97-5.15-20.37-8.9-31.33-11.06-8.13-1.6-16.29-2.91-24.03-5.99l11.47,4.84c-2.02-.88-3.94-1.85-5.85-2.96-3.82,29.24-7.64,58.49-11.47,87.73,17.87-7.38,34.45-15.47,50.01-27.01,15.16-11.24,29.52-23.23,43.09-36.33,23.35-22.54,46.13-46.01,67.12-70.77,14.37-16.96,28.08-34.63,40.33-53.18-27.63-16.15-55.26-32.3-82.89-48.45-15.18,30.56-27.95,62.52-37.26,95.36-5.28,18.61,2.2,38.86,17.2,50.45,6.9,5.33,14.07,8.29,22.7,9.45,11.25,1.51,20.28-.79,30.61-5.7,9.38-4.46,18.22-9.83,26.49-16.12,11.18-8.5,21.8-17.05,31.03-27.66,8.07-9.27,14.63-21.14,14.06-33.94-.49-10.84-3.64-20.46-10.31-29.08-6.13-7.93-14.88-14.91-24.93-17.2-11.98-2.73-26.54-2.52-36.99,4.84-26.33,18.57-49.01,42.06-63.45,71.17-7,14.12-8.62,28.02-2.42,42.72,1.94,5.95,5.24,11.1,9.92,15.45,5.99,5.95,13.05,10.06,21.18,12.34l1.55.63-11.47-4.84c10.84,4.59,20.97,10.48,30.34,17.61-3.24-2.5-6.48-5-9.71-7.51,6.18,4.82,11.92,10.1,17.24,15.86,8.14,8.82,22.13,14.06,33.94,14.06s25.84-5.23,33.94-14.06c18.17-19.79,18.21-48.15,0-67.88h0Z"/>
  <path class="cls-4" d="M966.08,680.65c-7.71,11.44-15.78,22.63-24.19,33.57l7.51-9.71c-15.61,20.16-32.38,39.4-50.3,57.54-19.21,19.45-41.85,37.04-54.58,61.84-5.02,9.79-7.17,19.6-5.7,30.61,1.35,10.07,5.49,20.48,13.2,27.56,6.13,5.63,13.26,9.78,21.18,12.34,6.38,2,12.76,2.29,19.14.86,6.39-.29,12.34-2.19,17.85-5.7,15.91-6.85,31.82-13.69,47.73-20.54s30.74-12.64,45.55-20.07c15.88-7.96,31.66-18.7,42.84-32.63,9.75-12.15,15.31-21.48,20.95-36.1,3.87-10.04,4.12-20.99,4.99-31.58l-1.71,12.76.34-1.36c-1.61,3.82-3.23,7.64-4.84,11.47l.69-1.2-7.51,9.71,1.12-.94-9.71,7.51,1.37-.58-11.47,4.84,1.47-.3-12.76,1.71c1.29-.11,2.43-.11,3.71.01l-12.76-1.71c1.2.22,2.26.5,3.42.91l-11.47-4.84c1.89.83,3.53,1.86,5.16,3.11l-9.71-7.51c5.39,4.52,9.32,10.37,13.93,15.63,7.78,8.87,18.19,14.96,27.46,22.13-3.24-2.5-6.48-5-9.71-7.51,4.43,3.58,8.29,7.62,11.84,12.08l-7.51-9.71c6.92,9.05,13.05,19.3,17.51,29.79l-4.84-11.47c.84,2.23,1.5,4.42,1.97,6.76-.57-4.25-1.14-8.51-1.71-12.76.3,2.35.33,4.53.07,6.88l1.71-12.76c-.41,2.25-1.01,4.35-1.82,6.49,1.61-3.82,3.23-7.64,4.84-11.47-3.88,8.95-10.18,16.84-16.09,24.52l7.51-9.71c-15.64,20.1-33.69,38.12-53.81,53.74l9.71-7.51c-8.21,6.29-17.27,11.86-24.62,19.15-4.56,4.52-8.58,9.76-11.86,15.25-5.93,9.9-7.53,19.45-8.39,30.78-1.26,16.5,10.03,33.4,23.77,41.45,14.8,8.66,33.66,8.68,48.45,0,28.83-16.91,55.91-36.71,81.44-58.26-26.74-7.06-53.48-14.12-80.23-21.18,1.03,2.51,1.68,4.96,2.04,7.65l-1.71-12.76c.16,2.12.14,4.15-.04,6.27l1.71-12.76c-.52,3.82-1.53,7.37-2.93,10.95l4.84-11.47c-2.66,6.23-6.22,11.89-10.31,17.27l7.51-9.71c-15.36,19.74-34.17,36.21-53.86,51.48l9.71-7.51c-22.93,17.7-46.72,34.23-69.32,52.37-9.93,7.97-19.57,16.33-28.54,25.39-4.02,4.06-7.92,8.25-11.61,12.61-7.1,8.39-12.88,15.58-16.04,26.27-4.15,14.04-2.72,29.17,4.5,42.01,7.44,13.24,20.61,22.98,35.36,26.58,13.55,3.3,26.94,2.06,40.25-1.68,15.89-4.47,31.49-11.64,45.44-20.46,25.63-16.22,47.98-37.36,69.99-58.07,25.17-23.68,49.31-49.2,67.02-79.09,6.33-10.68,8.13-25.05,4.84-36.99-3.07-11.13-11.67-23.2-22.06-28.69-23.13-12.22-51.99-5.86-65.67,17.22-4.41,7.43-9.27,14.54-14.51,21.42l7.51-9.71c-12.92,16.7-27.79,31.69-43.12,46.17-14.89,14.07-29.81,28.27-45.97,40.9l9.71-7.51c-11.3,8.71-23.25,16.47-36.36,22.18,3.82-1.61,7.64-3.23,11.47-4.84-6.86,2.88-13.99,5.34-21.32,6.69l12.76-1.71c-2.04.26-3.99.29-6.03.09,4.25.57,8.51,1.14,12.76,1.71-1.19-.19-2.25-.44-3.39-.81l11.47,4.84c-1.03-.44-1.84-.88-2.75-1.54l9.71,7.51-.7-.69,7.51,9.71c-.43-.5-.77-1.05-1-1.66,1.61,3.82,3.23,7.64,4.84,11.47l-.27-.98,1.71,12.76c-.15-.87-.12-1.74.09-2.6l-1.71,12.76.52-1.44c-1.61,3.82-3.23,7.64-4.84,11.47.46-.95,1.03-1.84,1.69-2.67-2.5,3.24-5,6.48-7.51,9.71,14.42-17.78,32.13-32.75,50.16-46.72-3.24,2.5-6.48,5-9.71,7.51,28.05-21.63,57.69-41.35,84.21-64.91,14.4-12.79,26.93-26.96,38.48-42.36,15.99-21.32,26.7-53.15,16.08-79.13-2.28-8.13-6.4-15.19-12.34-21.18-5.99-5.95-13.05-10.06-21.18-12.34-8.51-2.29-17.01-2.29-25.52,0-8.13,2.28-15.19,6.4-21.18,12.34-5.6,4.73-11.3,9.35-17.09,13.85l9.71-7.51c-17.42,13.45-35.66,25.77-54.64,36.91,24.08,13.82,48.15,27.63,72.23,41.45l.11-1.4-1.71,12.76c.26-1.41.6-2.59,1.12-3.93l-4.84,11.47c.63-1.27,1.3-2.38,2.12-3.55-2.5,3.24-5,6.48-7.51,9.71,2.15-2.7,4.62-4.92,7.31-7.05l-9.71,7.51c17.34-13.25,34.62-26.15,50-41.69,15.22-15.38,28.98-32.51,41.18-50.36,9.02-13.21,15.12-29.15,14.99-45.33-.13-17.12-7.03-32.4-15.21-47.02-6.16-11.02-13.52-21.45-21.9-30.9-8.28-9.34-19.05-15.94-28.88-23.5l9.71,7.51c-4.98-4-8.83-8.77-12.85-13.69-5.86-7.18-12.86-13.73-20.98-18.3-18.06-10.15-40.69-11.95-59.19-1.65-12.23,6.81-21.34,17.9-25.24,31.41-2.12,7.34-1.75,14.36-2.49,21.69.57-4.25,1.14-8.51,1.71-12.76-.64,4.67-1.9,9.08-3.73,13.42,1.61-3.82,3.23-7.64,4.84-11.47-1.97,4.33-4.39,8.33-7.23,12.14l7.51-9.71c-4,5.11-8.56,9.55-13.66,13.56,3.24-2.5,6.48-5,9.71-7.51-15.8,11.92-34.62,18.97-52.65,26.73-20.19,8.69-40.39,17.38-60.58,26.07,21.89,21.89,43.78,43.78,65.67,65.67,2.28-4.43,4.95-8.57,7.96-12.54l-7.51,9.71c8.71-11.09,19.43-20.31,29.53-30.09s20.74-20.83,30.55-31.77c22.11-24.68,42.53-51.07,61.04-78.54,6.7-9.94,7.94-25.74,4.84-36.99s-11.67-23.2-22.06-28.69c-11.14-5.89-24.64-8.84-36.99-4.84-12.33,3.99-21.41,11.26-28.69,22.06h0Z"/>
  <path class="cls-4" d="M1024.12,1023.29c10.43,13.31,20.85,26.61,31.28,39.92,5.99,5.95,13.05,10.06,21.18,12.34,8.51,2.29,17.01,2.29,25.52,0,15.07-4.15,30.55-17.49,33.53-33.53,4.04-21.75,4.16-41.68-.69-63.37-2.45-10.94-12.16-23.46-22.06-28.69s-19.69-7.16-30.61-5.7c-23.91,3.21-40.83,23.04-41.62,47.14-.09,2.68-.29,5.32-.61,7.98l1.71-12.76c-1.05,7.36-3.07,14.4-5.89,21.28l4.84-11.47c-4.28,9.94-10.01,19.04-16.58,27.62,2.5-3.24,5-6.48,7.51-9.71-7.89,10.1-16.75,20.42-26.8,28.44l9.71-7.51c-1.73,1.26-3.46,2.33-5.39,3.25l11.47-4.84c-1.44.55-2.68.89-4.21,1.11l12.76-1.71h-1.39c4.25.59,8.51,1.16,12.76,1.73-.94-.06-1.84-.27-2.7-.63,3.82,1.61,7.64,3.23,11.47,4.84l-1.3-.68c-3.82,29.24-7.64,58.49-11.47,87.73,19.72-3.67,39.44-7.35,59.16-11.02,10.04-1.87,19.09-3.67,28.52-7.65,17.88-7.55,32.91-21.75,37.51-41.34,2.79-11.87,1.98-26.41-4.84-36.99-7-10.85-16.37-17.9-28.69-22.06-19.91-6.72-43.09,1.56-56.81,16.68-7.16,7.9-13.39,17.28-19.94,25.77-4.46,5.78-9.6,11.46-13.19,17.81-8.89,15.73-8.81,35.66.32,51.26,7.2,12.3,18.67,19.82,31.83,24.35,8.3,2.86,16.81,4.18,25.48,5.34,8.75,1.18,17.39,2.26,26.24,1.79,21.5-1.13,40.21-9.63,52.11-28.37,4.84-7.62,8.24-19.91,7.78-28.95-.37-7.07-1.66-13.22-4.37-19.65-3.08-7.29-5.72-10.66-11.16-17.46-6.9-8.61-23.27-14.54-33.94-14.06l-12.76,1.71c-8.13,2.28-15.19,6.4-21.18,12.34-6.38,5.05-12.12,10.69-17.29,16.97-4.65,5.65-9.75,11.75-13.61,18.12-8.96,14.8-10.14,32.78-3.49,48.54,9.91,23.48,33.5,35.29,58.24,31.96,12.84-1.72,22.46-6.96,32.31-15.31,2.93-2.48,5.3-5.5,8.15-8.06l-9.71,7.51c.77-.65,1.6-1.23,2.49-1.71h-48.45c24.26,17.33,49.06,34.11,72.75,52.22-3.24-2.5-6.48-5-9.71-7.51,8.87,6.89,17.12,14.34,24.06,23.21-2.5-3.24-5-6.48-7.51-9.71,9.06,11.88,17.27,24.56,29,34.01s23.3,16.88,34.79,25.63l-9.71-7.51c10.67,8.33,20.32,17.9,30.19,27.15,9.11,8.54,18.23,17.1,25.97,26.94l-7.51-9.71c8.42,11.04,12.82,23.84,19.82,35.68,8.89,15.01,21.08,26.78,34.42,37.67l9.71,7.51c5.51,3.51,11.46,5.41,17.85,5.7,9.93,1.33,22.08.26,30.61-5.7,11.33-7.92,19.72-16.71,25.12-29.49,3.8-9,6.24-18.11,5.55-28.14-.8-11.59-3.09-22.43-9.27-32.49-2.97-4.83-6.48-9.49-10.6-13.4-3.9-3.7-8.8-7.84-13.88-10.04-7.49-4.34-15.56-6.53-24.23-6.55-8.66.03-16.74,2.21-24.23,6.55-15.26,8.93-22.76,24.26-23.77,41.45-.96,16.33-1.61,32.72-2.93,49.02l1.71-12.76c-.08.92-.31,1.8-.7,2.64,1.61-3.82,3.23-7.64,4.84-11.47l-.79,1.08,17.22-17.22-1.07.75,11.47-4.84c-1.78.68-3.57.99-5.45,1.28,4.25-.57,8.51-1.14,12.76-1.71-4.95.62-9.82.58-14.76-.06l12.76,1.71c-4.92-.78-9.62-2.12-14.22-4.05,3.82,1.61,7.64,3.23,11.47,4.84-4.08-1.84-7.87-4.07-11.46-6.76l9.71,7.51c-3.61-2.87-6.77-6.08-9.61-9.71l7.51,9.71c-7.01-9.48-11.26-20.43-16.44-30.93-6.8-13.79-15.72-26.15-25.58-37.94-16.48-19.7-39.42-32.48-59.55-47.98,3.24,2.5,6.48,5,9.71,7.51-7.35-5.75-14.2-11.99-19.97-19.35l7.51,9.71c-7.53-10.03-12.65-21.42-18.38-32.5-5.64-10.92-12.09-21.4-19.33-31.33-9.11-12.5-18.75-24.75-29.55-35.84-6.59-6.77-13.5-13.26-21.35-18.58-7.09-4.8-15.29-6.66-23.15-9.58l11.47,4.84c-.63-.25-1.22-.55-1.78-.92l9.71,7.51c-.5-.32-.92-.72-1.27-1.2l7.51,9.71-.38-.74,4.84,11.47-.19-.84,1.71,12.76.04-.96c.45-12.01-5.68-25.56-14.06-33.94-8.33-8.33-21.98-14.59-33.94-14.06-26.82,1.2-46.98,21.09-48,48-.68,18.06,10.17,36.74,26,45.44,6.52,3.58,13.44,5.51,20.38,7.82l-11.47-4.84c1.56.69,2.77,1.42,4.14,2.43l-9.71-7.51c11.24,9.45,21.14,20.81,30.1,32.4l-7.51-9.71c7.78,10.21,14.8,20.97,20.89,32.28s11.5,24.08,19.34,34.92c5.44,7.52,11.18,15.02,17.93,21.45s14.23,11.92,21.56,17.5c9.57,7.27,19.67,13.81,29.19,21.14l-9.71-7.51c8.22,6.43,15.64,13.53,22.11,21.73l-7.51-9.71c10.56,13.78,16.75,29.32,24.78,44.53,5.35,10.13,12.32,20.09,20.75,27.84,11.44,10.51,22.5,16.52,36.72,22.25,10.1,4.07,21.37,5.65,32.19,6.01,22,.73,44.77-6.48,56.83-26.26,8.72-14.31,8.26-31.05,9.21-47.19.59-9.92,1.17-19.85,1.76-29.77-24.08,13.82-48.15,27.63-72.23,41.45,1.37.59,2.56,1.29,3.76,2.18-3.24-2.5-6.48-5-9.71-7.51.83.72,1.54,1.44,2.26,2.28-2.5-3.24-5-6.48-7.51-9.71,1.11,1.47,1.97,2.99,2.68,4.68-1.61-3.82-3.23-7.64-4.84-11.47.5,1.4.87,2.78,1.14,4.25l-1.71-12.76c.24,1.86.27,3.64.11,5.5.57-4.25,1.14-8.51,1.71-12.76-.26,1.83-.7,3.52-1.39,5.24l4.84-11.47c-.63,1.32-1.34,2.49-2.23,3.65l7.51-9.71c-.74.84-1.48,1.54-2.34,2.25,3.24-2.5,6.48-5,9.71-7.51l-.91.64c19.39,2.5,38.78,5,58.17,7.51-7.9-6.45-15.71-12.97-22.13-20.95l7.51,9.71c-8.04-10.51-11.89-23.22-18.81-34.38-8.69-14-19.9-26.52-31.78-37.88-10-9.56-20-19.25-30.47-28.3-12.69-10.97-26.76-19.86-40.05-30,3.24,2.5,6.48,5,9.71,7.51-5.92-4.63-11.14-9.7-15.78-15.61l7.51,9.71c-8.84-11.55-16.99-23.69-27.75-33.58s-22.34-18.15-33.99-26.49c-19.97-14.29-39.97-28.55-59.95-42.82-13.37-9.55-34.95-8.35-48.45,0-5.39,3.33-10.56,7.26-14.93,11.87-1.95,2.06-3.78,4.13-6.02,5.88l9.71-7.51c-.61.43-1.26.78-1.96,1.04,3.82-1.61,7.64-3.23,11.47-4.84-.71.28-1.44.47-2.2.59l12.76-1.71c-1.18.13-2.17.14-3.35.01l12.76,1.71c-.69-.11-1.36-.31-2-.6l11.47,4.84-.87-.49c3.24,2.5,6.48,5,9.71,7.51-.54-.36-.99-.82-1.35-1.36,2.5,3.24,5,6.48,7.51,9.71l-.44-.88c1.61,3.82,3.23,7.64,4.84,11.47l-.25-1.01,1.71,12.76.04-1.66c-.57,4.25-1.14,8.51-1.71,12.76l.49-1.61c-1.61,3.82-3.23,7.64-4.84,11.47,1.58-3.09,3.7-5.84,5.81-8.59l-7.51,9.71c5.43-6.82,11.53-12.91,18.37-18.33h-67.88l.75.94-7.51-9.71.48,1.07c-1.61-3.82-3.23-7.64-4.84-11.47l.23,1.16-1.71-12.76v1.21c.57-4.25,1.14-8.51,1.72-12.76-.08.83-.29,1.63-.63,2.4,1.61-3.82,3.23-7.64,4.84-11.47-.34.78-.79,1.48-1.36,2.12l7.51-9.71-.91.86,9.71-7.51c-.83.65-1.74,1.16-2.73,1.54,3.82-1.61,7.64-3.23,11.47-4.84-1.58.52-3.01.83-4.66,1.06,4.25-.57,8.51-1.14,12.76-1.71-7.15.58-14.37.13-21.47-.8,4.25.57,8.51,1.14,12.76,1.71-6.46-.96-12.94-2.29-19.1-4.49l11.47,4.84c-.85-.32-1.62-.77-2.32-1.34l9.71,7.51-.82-.95c4.11,7.06,8.23,14.12,12.34,21.18l-.44-1.18,1.71,12.76.12-1.63c-2.18,8.08-4.37,16.15-6.55,24.23,2.76-5.86,8.03-11.12,11.98-16.24,4.22-5.48,8.45-10.95,12.67-16.43l-7.51,9.71c1.35-1.66,2.74-3.1,4.42-4.43-3.24,2.5-6.48,5-9.71,7.51l1.28-.79c-3.82,1.61-7.64,3.23-11.47,4.84.83-.45,1.72-.73,2.67-.83l-12.76,1.71,1.35.06-12.76-1.71,1.35.45c-11.18-19.68-22.35-39.36-33.53-59.05-.14.81-.37,1.6-.69,2.36l4.84-11.47c-.31.73-.69,1.42-1.15,2.07l7.51-9.71c-.76.98-1.51,1.78-2.43,2.61l9.71-7.51c-1.71,1.32-3.49,2.32-5.45,3.2l11.47-4.84c-11.9,4.78-25.76,5.78-38.3,8.12-14.55,2.71-29.09,5.42-43.64,8.13l-11.47,4.84-9.71,7.51c-7.51,7.51-11.8,17.16-13.2,27.56-2.44,18.14,5.95,38.94,22.92,47.83,14.28,7.48,30.98,10.42,46.58,5.02,12.39-4.29,22.51-11.24,31.88-20.35,10.66-10.36,19.99-21.56,28.99-33.4,17.84-23.47,28.66-51.49,29.63-81.1-31.43,4.25-62.86,8.51-94.29,12.76.7,3.11,1.25,6.22,1.68,9.38l-1.71-12.76c.87,7.63.85,15.2-.07,22.82.57-4.25,1.14-8.51,1.71-12.76-.27,1.89-.57,3.77-.92,5.65,26.74-7.06,53.48-14.12,80.23-21.18-10.43-13.31-20.85-26.61-31.28-39.92-7.05-9-23.11-14.06-33.94-14.06-11.77,0-25.84,5.23-33.94,14.06s-14.63,21.16-14.06,33.94c.57,4.25,1.14,8.51,1.71,12.76,2.28,8.13,6.4,15.19,12.34,21.18h0Z"/>
</svg>