<svg width="20" height="16" viewBox="0 0 20 16" fill="none" xmlns="http://www.w3.org/2000/svg">
<path d="M2 15.1139C1.45 15.1139 0.979167 14.9406 0.5875 14.5942C0.195833 14.2477 0 13.8312 0 13.3447V2.73005C0 2.24355 0.195833 1.82707 0.5875 1.48061C0.979167 1.13416 1.45 0.960938 2 0.960938H18C18.55 0.960938 19.0208 1.13416 19.4125 1.48061C19.8042 1.82707 20 2.24355 20 2.73005V13.3447C20 13.8312 19.8042 14.2477 19.4125 14.5942C19.0208 14.9406 18.55 15.1139 18 15.1139H2ZM10 8.92195L18 4.49917V2.73005L10 7.15284L2 2.73005V4.49917L10 8.92195Z" fill="white"/>
</svg>
