<svg fill="none" height="16" viewBox="0 0 20 16" width="20" xmlns="http://www.w3.org/2000/svg"><path d="m2 15.1139c-.55 0-1.020833-.1733-1.4125-.5197-.391667-.3465-.5875-.763-.5875-1.2495v-10.61465c0-.4865.195833-.90298.5875-1.24944.391667-.34645.8625-.519672 1.4125-.519672h16c.55 0 1.0208.173222 1.4125.519672.3917.34646.5875.76294.5875 1.24944v10.61465c0 .4865-.1958.903-.5875 1.2495-.3917.3464-.8625.5197-1.4125.5197zm8-6.19195 8-4.42278v-1.76912l-8 4.42279-8-4.42279v1.76912z" fill="#fff"/></svg>