<?xml version="1.0" encoding="UTF-8"?>
<svg id="_Ńëîé_1" data-name="Ńëîé 1" xmlns="http://www.w3.org/2000/svg" viewBox="0 0 181.08 129.84">
  <defs>
    <style>
      .cls-1 {
        stroke-width: 0px;
      }
    </style>
  </defs>
  <path class="cls-1" d="M67.98,129.84H8c-4.42,0-8-3.58-8-8h0c0-4.42,3.58-8,8-8h59.98c4.42,0,8,3.58,8,8h0c0,4.42-3.58,8-8,8Z"/>
  <rect class="cls-1" x="17.21" y="110.75" width="41.56" height="3.09"/>
  <path class="cls-1" d="M5.9,103.36h60.74c1.91,0,3.46,1.55,3.46,3.46v.48c0,1.91-1.55,3.46-3.46,3.46H9.35c-1.91,0-3.46-1.55-3.46-3.46v-3.94h0Z"/>
  <path class="cls-1" d="M14.04,80.43h19.1c1.88,0,3.44,1.47,3.56,3.35l1.78,21.17H5.9v-16.38c0-4.5,3.65-8.14,8.14-8.14Z"/>
  <path class="cls-1" d="M52.9,43.47c1.65,0,3.05,1.29,3.19,2.93l4.43,52.93H15.46l4.43-52.93c.14-1.64,1.54-2.93,3.19-2.93h29.82ZM52.9,37.85h-29.82c-4.58,0-8.4,3.51-8.78,8.08l-4.94,59.02h57.27l-4.94-59.02c-.38-4.57-4.2-8.08-8.78-8.08h0Z"/>
  <path class="cls-1" d="M144.97,6.58c-.67-1.05-1.91-1.5-2.83-1.02l-54.02,25.65c-2.27,1.08-3.94,3.1-4.57,5.53l-18.18,69.8c-.35,1.27.39,2.58,1.66,2.94,1.21.33,2.47-.32,2.89-1.5l24.89-63.36c.63-1.62,1.75-3,3.2-3.96l46.58-31c.92-.59,1.09-1.97.38-3.08Z"/>
  <circle class="cls-1" cx="142.75" cy="8" r="8"/>
  <rect class="cls-1" x="30.88" y="40.14" width="5.61" height="63.21"/>
  <polygon class="cls-1" points="147.89 6.62 160.77 63.86 155.12 65.38 137.62 9.38 147.89 6.62"/>
  <circle class="cls-1" cx="157.94" cy="64.62" r="5.34"/>
  <path class="cls-1" d="M159.96,64.62c-1.07,0-2.12.07-3.14.2v29.83l-6.47,3.7v2.5h9.62c11.66,0,21.12-8.11,21.12-18.12s-9.46-18.12-21.12-18.12Z"/>
</svg>