<svg fill="none" height="37" viewBox="0 0 37 37" width="37" xmlns="http://www.w3.org/2000/svg"><path d="m18.2439 3.76758c-3.7964 0-7.4373 1.5081-10.12168 4.19253-2.68443 2.68439-4.19253 6.32529-4.19253 10.12169 0 3.7963 1.5081 7.4372 4.19253 10.1216 2.68438 2.6845 6.32528 4.1926 10.12168 4.1926 3.7963 0 7.4372-1.5081 10.1216-4.1926 2.6845-2.6844 4.1926-6.3253 4.1926-10.1216 0-3.7964-1.5081-7.4373-4.1926-10.12169-2.6844-2.68443-6.3253-4.19253-10.1216-4.19253z" fill="#039be5"/><path d="m20.181 21.8756h3.7043l.5816-3.7631h-4.2867v-2.0567c0-1.5633.5108-2.9495 1.9731-2.9495h2.3498v-3.28397c-.4129-.05575-1.286-.1778-2.9359-.1778-3.4452 0-5.465 1.81937-5.465 5.96447v2.5035h-3.5417v3.7631h3.5417v10.3432c.7014.1054 1.4118.177 2.1411.177.6592 0 1.3026-.0603 1.9377-.1462z" fill="#fff"/></svg>