<svg version="1.2" xmlns="http://www.w3.org/2000/svg" xmlns:xlink="http://www.w3.org/1999/xlink" overflow="visible"
     preserveAspectRatio="none" viewBox="0 0 24 24" width="24" height="24">
    <g>
        <path xmlns:default="http://www.w3.org/2000/svg" id="fax"
              d="M4.33,6.66c-0.92,0-1.67,0.75-1.67,1.67l0,0v11.32c0,0.92,0.75,1.67,1.67,1.67l0,0h1.33  c0.92,0,1.67-0.75,1.67-1.67l0,0V8.34c0-0.92-0.75-1.67-1.67-1.67l0,0H4.33z M19.99,8.36v-1.7c-0.01-0.32-0.08-0.63-0.21-0.92  c-0.12-0.28-0.29-0.53-0.5-0.75L17.7,3.38c-0.23-0.22-0.5-0.39-0.79-0.5c-0.29-0.13-0.6-0.2-0.92-0.21h-7c-0.55,0-1,0.45-1,1v16  c0,0.92,0.75,1.67,1.67,1.67l0,0h9c1.47,0,2.67-1.2,2.67-2.67v-8c0.01-0.47-0.11-0.93-0.34-1.34c-0.24-0.42-0.58-0.76-1-1l0,0V8.36z   M12.23,18.9c-0.06,0.07-0.15,0.1-0.24,0.1h-1.33c-0.18,0.01-0.32-0.13-0.33-0.31c0-0.01,0-0.01,0-0.02v-1.34  c-0.01-0.18,0.13-0.32,0.31-0.33c0.01,0,0.01,0,0.02,0h1.33c0.18-0.01,0.32,0.13,0.33,0.31c0,0.01,0,0.01,0,0.02v1.33  C12.33,18.74,12.3,18.83,12.23,18.9z M12.32,15.99c0.01,0.18-0.13,0.32-0.31,0.33c-0.01,0-0.01,0-0.02,0h-1.33  c-0.18,0.01-0.33-0.12-0.34-0.3c0-0.01,0-0.02,0-0.03v-1.33c-0.01-0.18,0.13-0.32,0.31-0.33c0.01,0,0.01,0,0.02,0h1.34  c0.18-0.01,0.32,0.13,0.33,0.31c0,0.01,0,0.01,0,0.02V15.99L12.32,15.99z M12.23,13.56c-0.06,0.06-0.15,0.09-0.24,0.09h-1.33  c-0.18,0.01-0.32-0.13-0.33-0.31c0-0.01,0-0.01,0-0.02v-1.33c-0.01-0.18,0.13-0.32,0.31-0.33c0.01,0,0.01,0,0.02,0h1.33  c0.18-0.01,0.32,0.13,0.33,0.31c0,0.01,0,0.01,0,0.02v1.33C12.33,13.41,12.3,13.5,12.23,13.56z M14.89,18.9  c-0.06,0.06-0.15,0.09-0.24,0.09h-1.33c-0.18,0.01-0.32-0.13-0.33-0.31c0-0.01,0-0.01,0-0.02v-1.33c-0.01-0.18,0.13-0.32,0.31-0.33  c0.01,0,0.01,0,0.02,0h1.33c0.18-0.01,0.32,0.13,0.33,0.31c0,0.01,0,0.01,0,0.02v1.33C14.99,18.74,14.96,18.83,14.89,18.9z   M14.99,15.99c0.01,0.18-0.13,0.32-0.31,0.33c-0.01,0-0.01,0-0.02,0h-1.34c-0.18,0.01-0.32-0.13-0.33-0.31c0-0.01,0-0.01,0-0.02  v-1.33c-0.01-0.18,0.13-0.32,0.31-0.33c0.01,0,0.01,0,0.02,0h1.33c0.18-0.01,0.32,0.13,0.33,0.31c0,0.01,0,0.01,0,0.02v1.33l0,0  H14.99z M14.89,13.56c-0.06,0.06-0.15,0.09-0.24,0.09h-1.33c-0.18,0.01-0.32-0.13-0.33-0.31c0-0.01,0-0.01,0-0.02v-1.33  c-0.01-0.18,0.13-0.32,0.31-0.33c0.01,0,0.01,0,0.02,0h1.33c0.18-0.01,0.33,0.12,0.34,0.3c0,0.01,0,0.02,0,0.03v1.33  C15,13.42,14.96,13.5,14.89,13.56z M17.56,18.9c-0.06,0.06-0.15,0.09-0.24,0.09h-1.33c-0.18,0.01-0.32-0.13-0.33-0.31  c0-0.01,0-0.01,0-0.02v-1.33c-0.01-0.18,0.13-0.32,0.31-0.33c0.01,0,0.01,0,0.02,0h1.33c0.18-0.01,0.32,0.13,0.33,0.31  c0,0.01,0,0.01,0,0.02v1.33C17.66,18.74,17.63,18.83,17.56,18.9z M17.65,15.99c0.01,0.18-0.13,0.32-0.31,0.33c-0.01,0-0.01,0-0.02,0  h-1.33c-0.18,0.01-0.33-0.12-0.34-0.3c0-0.01,0-0.02,0-0.03v-1.33c-0.01-0.18,0.12-0.33,0.3-0.34c0.01,0,0.03,0,0.04,0h1.33  c0.18-0.01,0.32,0.13,0.33,0.31c0,0.01,0,0.01,0,0.02V15.99L17.65,15.99z M17.56,13.56c-0.06,0.06-0.15,0.09-0.24,0.09h-1.33  c-0.18,0.01-0.32-0.13-0.33-0.31c0-0.01,0-0.01,0-0.02v-1.33c-0.01-0.18,0.13-0.32,0.31-0.33c0.01,0,0.01,0,0.02,0h1.33  c0.18-0.01,0.32,0.13,0.33,0.31c0,0.01,0,0.01,0,0.02v1.33C17.66,13.41,17.63,13.5,17.56,13.56z M18.65,9.32H9.32V3.99h6.67v1.67  c0,0.55,0.45,1,1,1h1.67v2.66l0,0H18.65z"
              style="fill: rgb(222, 1, 10);" vector-effect="non-scaling-stroke"/>
    </g>
</svg>