<svg height="24" preserveAspectRatio="none" viewBox="0 0 24 24" width="24" xmlns="http://www.w3.org/2000/svg"><path d="m4.33 6.66c-.92 0-1.67.75-1.67 1.67v11.32c0 .92.75 1.67 1.67 1.67h1.33c.92 0 1.67-.75 1.67-1.67v-11.31c0-.92-.75-1.67-1.67-1.67h-1.33zm15.66 1.7v-1.7c-.01-.32-.08-.63-.21-.92-.12-.28-.29-.53-.5-.75l-1.58-1.61c-.23-.22-.5-.39-.79-.5-.29-.13-.6-.2-.92-.21h-7c-.55 0-1 .45-1 1v16c0 .92.75 1.67 1.67 1.67h9c1.47 0 2.67-1.2 2.67-2.67v-8c.01-.47-.11-.93-.34-1.34-.24-.42-.58-.76-1-1zm-7.76 10.54c-.06.07-.15.1-.24.1h-1.33c-.18.01-.32-.13-.33-.31 0-.01 0-.01 0-.02v-1.34c-.01-.18.13-.32.31-.33h.02 1.33c.18-.01.32.13.33.31v.02 1.33c.01.08-.02.17-.09.24zm.09-2.91c.01.18-.13.32-.31.33-.01 0-.01 0-.02 0h-1.33c-.18.01-.33-.12-.34-.3 0-.01 0-.02 0-.03v-1.33c-.01-.18.13-.32.31-.33h.02 1.34c.18-.01.32.13.33.31v.02zm-.09-2.43c-.06.06-.15.09-.24.09h-1.33c-.18.01-.32-.13-.33-.31 0-.01 0-.01 0-.02v-1.33c-.01-.18.13-.32.31-.33h.02 1.33c.18-.01.32.13.33.31v.02 1.33c.01.09-.02.18-.09.24zm2.66 5.34c-.06.06-.15.09-.24.09h-1.33c-.18.01-.32-.13-.33-.31 0-.01 0-.01 0-.02v-1.33c-.01-.18.13-.32.31-.33h.02 1.33c.18-.01.32.13.33.31v.02 1.33c.01.08-.02.17-.09.24zm.1-2.91c.01.18-.13.32-.31.33-.01 0-.01 0-.02 0h-1.34c-.18.01-.32-.13-.33-.31 0-.01 0-.01 0-.02v-1.33c-.01-.18.13-.32.31-.33h.02 1.33c.18-.01.32.13.33.31v.02 1.33zm-.1-2.43c-.06.06-.15.09-.24.09h-1.33c-.18.01-.32-.13-.33-.31 0-.01 0-.01 0-.02v-1.33c-.01-.18.13-.32.31-.33h.02 1.33c.18-.01.33.12.34.3v.03 1.33c.01.1-.03.18-.1.24zm2.67 5.34c-.06.06-.15.09-.24.09h-1.33c-.18.01-.32-.13-.33-.31 0-.01 0-.01 0-.02v-1.33c-.01-.18.13-.32.31-.33h.02 1.33c.18-.01.32.13.33.31v.02 1.33c.01.08-.02.17-.09.24zm.09-2.91c.01.18-.13.32-.31.33-.01 0-.01 0-.02 0h-1.33c-.18.01-.33-.12-.34-.3 0-.01 0-.02 0-.03v-1.33c-.01-.18.12-.33.3-.34h.04 1.33c.18-.01.32.13.33.31v.02zm-.09-2.43c-.06.06-.15.09-.24.09h-1.33c-.18.01-.32-.13-.33-.31 0-.01 0-.01 0-.02v-1.33c-.01-.18.13-.32.31-.33h.02 1.33c.18-.01.32.13.33.31v.02 1.33c.01.09-.02.18-.09.24zm1.09-4.24h-9.33v-5.33h6.67v1.67c0 .55.45 1 1 1h1.67v2.66z" fill="#de010a"/></svg>