<?xml version="1.0" encoding="utf-8"?>
<!-- Generator: Adobe Illustrator 24.0.3, SVG Export Plug-In . SVG Version: 6.00 Build 0)  -->
<svg version="1.1" id="Ebene_1" xmlns="http://www.w3.org/2000/svg" xmlns:xlink="http://www.w3.org/1999/xlink" x="0px" y="0px"
	 viewBox="0 0 25 25" style="enable-background:new 0 0 25 25;" xml:space="preserve">
<style type="text/css">
	.st0{fill:#D7172F;}
	.st1{fill:#D7172F;}
	.st2{fill-rule:evenodd;clip-rule:evenodd;fill:#D7172F;}
</style>
<path class="st0" d="M5,13.9l4.1,0.9l-1.2,1.4v0.9c0,0.2-0.1,0.3-0.3,0.3c-0.2,0-0.3-0.1-0.3-0.3v-0.9H6.6v0.9
	c0,0.2-0.1,0.3-0.3,0.3c-0.2,0-0.3-0.1-0.3-0.3v-0.9H5.1l0.5,3.9h-1l-0.9-3.9l0-0.6L5,13.9z M13.3,14.9l-0.7,5.2h1l1-4.3l-0.5-0.9
	L13.3,14.9z M24.9,14.7l-2.4,0l-4.3-8.2c-0.3-0.6-1-1-1.7-1H1.7C0.9,5.4,0.2,6.1,0.2,7v7.3H1V7c0-0.4,0.3-0.8,0.8-0.8v3.5l0.4,2.7
	l-0.4,2.3l0.4,5.4h1v-4.6l1.7-2.2l4.7,1l5,0l1,1.9l0.4,3.9h1v-5.8l5.5,5.8h0.8c0.4,0,0.6-0.3,0.6-0.6v-3.7L24.9,14.7z"/>
</svg>
