<?xml version="1.0" encoding="UTF-8"?>
<svg id="Ebene_1" data-name="Ebene 1" xmlns="http://www.w3.org/2000/svg" viewBox="0 0 876.18 634.34">
  <defs>
    <style>
      .cls-1 {
        stroke-width: 0px;
      }
    </style>
  </defs>
  <path class="cls-1" d="M83.75,166.05c0-52.48,0-104.96,0-157.43,0-1.92,0-3.84.17-5.75.17-1.84.95-2.55,2.76-2.71,1.27-.11,2.56-.1,3.84-.1C164.59.05,238.66.12,312.74,0c18.78-.03,35.49,5.83,50.78,16.32,13.21,9.06,24,20.59,33.59,33.31,11.12,14.74,20.35,30.63,28.39,47.23,12.15,25.11,21.89,51.16,30.14,77.78,5.49,17.73,10.42,35.61,14.77,53.65,5.02,20.84,9.39,41.81,13.26,62.9,3.03,16.52,5.63,33.1,8.07,49.71.88,6.01,1.72,12.04,2.23,18.09.8,9.51,7.76,18.62,20.22,19.44,5.5.36,10.85-.4,16.1-1.99,6.76-2.05,13.2-4.85,19.47-8.08,5.56-2.86,5.63-2.84,7.52,3.09,9.3,29.1,18.56,58.21,27.86,87.31,8.62,26.97,17.27,53.93,25.89,80.89,1.41,4.42,2.79,8.85,4.17,13.28.29.91.59,1.83.77,2.77.26,1.32-.37,2.25-1.65,2.42-.95.12-1.91.15-2.87.15-9.12.01-18.24.04-27.36,0-5.23-.02-5.68-.41-4.92-5.49.95-6.37,1.11-12.74.9-19.14-.66-19.57-6.88-37.32-17.89-53.4-9.77-14.27-22.44-25.34-37.83-33.22-8.87-4.55-18.27-7.65-28.09-9.5-5.68-1.07-11.44-1.48-17.17-1.73-4.76-.21-9.59.33-14.34.95-18.5,2.4-35.2,9.3-49.83,20.89-20.96,16.6-33.68,38.13-38.2,64.52-.68,3.97-.9,7.94-1.03,11.94-.03.96,0,1.92-.12,2.88-.28,2.42-.94,3.09-3.29,3.26-1.27.09-2.56.06-3.84.06-35.2,0-70.4,0-105.6,0-1.44,0-2.88.02-4.32-.1-1.8-.15-2.57-.83-2.86-2.65-.4-2.52-.65-5.07-1.02-7.6-2.49-16.85-9.1-31.97-19.71-45.22-14.76-18.42-33.8-30-56.99-34.67-5.66-1.14-11.41-1.82-17.15-1.84-10.93-.04-21.66,1.64-32.06,5.15-13.24,4.47-25,11.48-35.11,21.09-15.41,14.67-25.29,32.43-28.91,53.5-.46,2.67-.69,5.39-1.05,8.08-.48,3.55-1.02,4.14-4.52,4.21-4.8.09-9.6.04-14.4.04-4.64,0-9.28.03-13.92-.01-4.68-.05-5.01-.22-6.23-4.87-2.16-8.2-4.24-16.41-6.24-24.65-5.18-21.3-9.59-42.76-13.04-64.41-1.88-11.84-3.34-23.74-4.43-35.69-1.08-11.83-1.01-23.65-.71-35.48.21-8.18,1.53-16.24,4.21-24.02,1.52-4.42,3.51-8.56,6.77-12.03,4.05-4.32,8.99-6.55,14.87-6.75,1.44-.05,2.88-.03,4.32-.03,15.52,0,31.04,0,46.56,0,1.44,0,2.88,0,4.31-.12,1.56-.14,2.27-.85,2.39-2.47.13-1.75.12-3.52.12-5.28,0-52.8,0-105.6,0-158.39ZM139.66,166.95c0,34.87,0,69.74,0,104.62,0,7.17-.01,7.01,6.75,6.98.64,0,1.28,0,1.92,0,33.27,0,66.55,0,99.82,0,1.28,0,2.57.11,3.84-.02,3.09-.3,5.04.95,6.54,3.72,3.57,6.61,7.42,13.07,11.14,19.6,12.43,21.82,24.82,43.65,37.31,65.44,3.38,5.89,2.47,5.32,9.36,5.32,35.67.02,71.34,0,107.02,0,1.28,0,2.56.03,3.84-.04,2.26-.13,2.86-.77,2.56-3.01-.85-6.34-1.6-12.7-2.72-18.99-2.85-16.06-5.71-32.12-8.87-48.11-8.06-40.79-16.37-81.52-26.02-121.97-4.2-17.6-9.33-34.92-15.91-51.78-5.6-14.34-12.16-28.2-21.03-40.86-5.34-7.63-11.28-14.69-18.68-20.48-10.06-7.87-21.35-12.05-34.16-12.04-52.15.01-104.3,0-156.45,0-1.12,0-2.24-.02-3.36.07-1.91.15-2.65.8-2.8,2.6-.13,1.59-.1,3.2-.1,4.8,0,34.71,0,69.42,0,104.14Z"/>
  <path class="cls-1" d="M876.18,457.19c.05,8.74-5.04,16.04-13.53,18.94-13.02,4.44-26.09,8.72-39.14,13.06-28.23,9.38-56.45,18.76-84.69,28.11-25.66,8.49-51.33,16.95-76.99,25.42-3.5,1.16-7.02,2.22-10.77,2.12-8.5-.24-14.53-4.31-18.26-11.85-.78-1.57-1.28-3.28-1.83-4.94-42.17-126.53-84.33-253.07-126.49-379.61-12.84-38.53-25.67-77.07-38.48-115.61-.81-2.42-1.66-4.86-2.16-7.35-2.1-10.46,3.78-20.11,13.87-23.15,10.55-3.18,20.89,2.67,24.37,11.74.52,1.34.98,2.71,1.43,4.07,18.6,55.83,37.19,111.67,55.78,167.51,11.21,33.68,22.43,67.36,33.63,101.05,22.75,68.44,45.48,136.89,68.22,205.34.5,1.52.98,3.05,1.56,4.54.96,2.49,1.49,2.8,3.93,2.05,3.67-1.13,7.3-2.36,10.95-3.56,35.08-11.57,70.16-23.15,105.25-34.71,21.42-7.05,42.84-14.07,64.27-21.1,1.52-.5,3.07-.9,4.6-1.37,9.92-3.03,24.61,4.56,24.49,19.33Z"/>
  <path class="cls-1" d="M478.53,626.65c-45.81,1.46-90.34-36.75-90.55-89.88-.19-47.75,37.34-90.74,90.47-90.72,52.37.02,90.49,42.13,90.27,90.89-.24,53.35-44.78,91-90.19,89.72ZM529.18,536.77c.57-25.81-20.46-51.05-50.59-51.31-27.36-.24-51.78,21.79-51.45,51.59.35,31.12,25.95,50.84,51.24,50.83,27.92-.01,51.25-23.76,50.8-51.12Z"/>
  <path class="cls-1" d="M157.04,634.33c-47.35.43-86.06-38.61-85.95-86.05.11-48.23,40.68-87.03,86.92-85.51,42.62-.68,85.25,34.75,85.02,85.97-.24,51.11-42.15,86.22-85.98,85.59ZM108.82,548.32c-.77,25.28,19.94,48.72,48.03,48.9,27.24.17,48.72-22.58,48.84-48.41.12-24.95-19.63-48.64-48.34-48.84-29.08-.2-48.97,23.66-48.52,48.35Z"/>
</svg>