<svg width="37" height="37" viewBox="0 0 37 37" fill="none" xmlns="http://www.w3.org/2000/svg">
<path d="M31.3935 10.1548C31.0921 10.3507 30.6627 10.5315 30.4819 10.7349C30.4141 10.8027 30.3764 10.878 30.3915 10.9534V11.7294L30.1655 12.4903L29.9395 13.2437L29.6909 14.0724L29.1786 15.7675L28.6813 17.44L28.3046 18.6981C28.3046 18.894 28.2971 19.0899 28.282 19.2782C28.2293 20.0015 28.0786 20.6946 27.8376 21.3425C27.6944 21.7418 27.5211 22.126 27.3102 22.4876C27.2348 22.6307 27.1444 22.7739 27.054 22.9095C26.7527 23.3841 26.3911 23.8211 25.9918 24.2053C25.6829 24.5142 25.3439 24.8005 24.9747 25.0416C24.9747 25.0416 24.9747 25.0416 24.9672 25.0416C24.9069 25.0943 24.8391 25.1395 24.7638 25.1772C24.5302 25.3354 24.2816 25.471 24.0255 25.5915C23.8522 25.6819 23.6789 25.7573 23.4981 25.8251C23.4604 25.8477 23.4152 25.8627 23.3776 25.8778C22.9481 26.0812 22.4509 26.2168 21.9537 26.2846C21.9235 26.2922 21.9009 26.2922 21.8708 26.2997C21.5694 26.3524 21.2756 26.3976 20.9743 26.4202C20.8387 26.4353 20.6955 26.4428 20.5599 26.4428L20.025 26.4127L17.4485 26.2771C17.4485 26.2696 17.4409 26.2771 17.4409 26.2771L16.1451 26.2093C16.0472 26.2093 15.9417 26.2093 15.8438 26.2018C15.4369 26.1867 15.0452 26.1415 14.6534 26.0586C14.6459 26.0586 14.6459 26.0586 14.6459 26.0586C13.9302 25.923 13.2446 25.6819 12.6042 25.358C12.2502 25.1772 11.9036 24.9738 11.5796 24.7402C11.444 24.6423 11.316 24.5368 11.1879 24.4238C10.8263 24.1224 10.5023 23.7985 10.201 23.467C10.1558 23.4218 10.1181 23.3766 10.0804 23.3314C10.0352 23.2862 9.99002 23.2335 9.95235 23.1882C9.66607 22.8266 9.42499 22.4575 9.22911 22.0657C9.0483 21.7192 8.90515 21.35 8.79215 20.9432C8.74695 20.8 8.70928 20.6644 8.67914 20.5138C8.67161 20.5062 8.66407 20.4912 8.66407 20.4761C8.58874 20.1672 8.52093 19.8432 8.48326 19.5193C8.43806 19.2707 8.41546 19.0221 8.41546 18.7659C8.40039 18.668 8.40039 18.5625 8.40039 18.4646L9.83934 16.2421L11.2482 14.0724L11.8885 13.0854L12.4686 12.1965L12.6645 11.8876V11.1116C12.6796 10.9383 12.6871 10.7575 12.6796 10.5918C12.672 10.0644 12.5666 9.5521 12.3933 9.0624C12.2276 8.54257 11.994 8.05288 11.7529 7.60085C11.4666 7.08102 11.1653 6.61392 10.9167 6.19203C10.5475 5.57426 10.2914 5.0695 10.3592 4.71541C10.9016 4.58734 11.4742 4.51953 12.0543 4.51953H24.1083C27.2575 4.51953 29.9696 6.47832 31.0921 9.23568C31.2127 9.5295 31.3182 9.83838 31.3935 10.1548Z" fill="#304FFE"/>
<path d="M31.6411 12.0533V12.2567L30.6015 12.8594L29.9385 13.2437L29.2077 13.6655L27.7462 14.5169L26.3147 15.3456L24.8532 16.1894L24.2731 16.5284C24.2731 16.89 24.1827 17.2215 24.0169 17.5228C23.7834 17.9598 23.3916 18.3214 22.8944 18.6303C22.3896 18.9392 21.7719 19.1878 21.0788 19.3686C21.0788 19.3686 21.0788 19.3611 21.0712 19.3686C18.3892 20.0617 14.7278 19.7453 12.9498 18.4194C12.4526 18.0502 12.106 17.5982 11.9553 17.0783C11.9101 16.9051 11.8875 16.7167 11.8875 16.5284V11.1116C11.8951 10.9986 11.8197 10.8856 11.6841 10.7726C11.2773 10.4486 10.3205 10.1397 9.25071 9.83085C8.41446 9.5973 7.51794 9.36375 6.76456 9.13774C6.1694 8.95693 5.66463 8.77612 5.36328 8.60284C5.49889 8.33916 5.6571 8.07548 5.82284 7.82686C6.87757 6.28244 8.4898 5.14484 10.3582 4.71541C10.9006 4.58734 11.4732 4.51953 12.0533 4.51953H20.1898C24.2354 5.22771 27.9646 6.87761 31.0912 9.23568C31.2117 9.5295 31.3172 9.83838 31.3925 10.1548C31.5281 10.652 31.611 11.1643 31.6336 11.6992C31.6411 11.8122 31.6411 11.9328 31.6411 12.0533Z" fill="#4928F4"/>
<path d="M31.642 12.0538V15.3762L31.4762 15.8885L30.9112 17.6439L30.3236 19.452L30.0147 20.4163L29.7284 21.3128L29.4497 22.1642L29.1784 23.0079L29.0353 23.4524L28.847 24.0401C28.847 24.6126 28.8319 25.1174 28.7942 25.5468C28.7867 25.592 28.7791 25.6372 28.7791 25.6824C28.7339 26.0817 28.6737 26.4208 28.5757 26.707C28.5682 26.7522 28.5531 26.7974 28.5381 26.8351C28.3422 27.3775 28.0484 27.7241 27.6114 27.9501C27.5059 28.0104 27.3854 28.0556 27.2573 28.1008C26.858 28.2364 26.3533 28.3042 25.7355 28.3419C25.2835 28.372 24.7636 28.3795 24.176 28.3795H23.6562L22.7597 28.3419L22.6014 28.3343L20.9666 28.2665L19.3092 28.1987L13.8472 27.9727L12.4308 27.9124H12.235C11.6473 27.9049 11.1426 27.8672 10.7056 27.807C10.0728 27.709 9.58307 27.5433 9.21391 27.2947C8.68655 26.9557 8.37766 26.4584 8.19685 25.7653C8.15165 25.5996 8.11398 25.4263 8.09138 25.2379C8.01604 24.801 7.97837 24.2962 7.95577 23.7312C7.95577 23.6182 7.95577 23.5052 7.94824 23.3846C7.9407 23.3771 7.94824 23.3771 7.94824 23.3771V22.9401C7.9407 22.7217 7.9407 22.4957 7.9407 22.2621L7.97837 21.0492L8.00097 20.1828L8.03111 19.1733V19.0301L8.08384 17.1768L8.13658 15.3235L8.18932 13.5832L8.23452 11.873L8.24959 11.421C8.24959 11.1874 7.45854 11.0518 6.57709 10.9388C5.87644 10.8484 5.108 10.7655 4.64844 10.6601C4.68611 10.4868 4.72378 10.3135 4.76898 10.1478C4.90459 9.60535 5.108 9.09305 5.36415 8.60335C5.49975 8.33967 5.65796 8.07599 5.82371 7.82737C7.45101 7.11166 9.14611 6.55416 10.9165 6.19254C12.4685 5.86859 14.0883 5.69531 15.7608 5.69531C21.3056 5.69531 26.4286 7.57122 30.4818 10.7354C30.8735 11.0368 31.2578 11.3607 31.6345 11.6997C31.642 11.8127 31.642 11.9333 31.642 12.0538Z" fill="#6200EA"/>
<path d="M31.6412 13.8398V17.2602L31.2268 18.0587L30.4357 19.6032L30.0139 20.4168L29.6296 21.1627L29.4639 21.4866C29.4639 21.7202 29.4639 21.9462 29.4488 22.1647C29.4488 22.4886 29.4338 22.7975 29.4112 23.0838C29.381 23.4228 29.3358 23.7317 29.2906 24.018C29.1776 24.6131 29.0194 25.1254 28.7934 25.5473C28.7632 25.6001 28.7331 25.6528 28.703 25.698C28.6201 25.8336 28.5222 25.9617 28.4167 26.0822C28.2811 26.248 28.1304 26.3911 27.9571 26.5117C27.701 26.7075 27.3996 26.8657 27.0531 26.9863C26.6237 27.1445 26.1264 27.25 25.5388 27.3102C25.1546 27.3479 24.7327 27.3705 24.2731 27.3705L23.9567 27.3856L22.3897 27.476H22.3821L20.7172 27.5739L19.0221 27.6719L16.6866 27.8075L13.8464 27.9732L13.432 27.9958C13.0478 27.9958 12.6862 27.9732 12.3396 27.928C12.3019 27.9205 12.2718 27.9129 12.2341 27.9129C11.7218 27.8301 11.2547 27.6945 10.8328 27.5061C10.3205 27.2801 9.87605 26.9787 9.49936 26.6171C9.16788 26.2932 8.88159 25.924 8.64804 25.5097C8.59531 25.4117 8.54257 25.3213 8.49737 25.2158C8.27136 24.7713 8.09055 24.2741 7.95494 23.7317C7.93234 23.6413 7.90973 23.5433 7.89467 23.4454C7.84946 23.2721 7.81179 23.0913 7.78919 22.903C7.70632 22.4208 7.66112 21.9085 7.63852 21.3736V21.3661C7.63098 21.1476 7.62345 20.9367 7.62345 20.7106L7.25429 19.8292L7.20156 19.6936L7.15636 19.5806L6.59132 18.232L6.50092 18.0135L5.95848 16.7102L5.35578 15.2562C5.35578 15.2562 5.35578 15.2562 5.34825 15.2562L4.73801 13.7871L4.51953 13.2522V12.0543C4.51953 11.5797 4.56473 11.1126 4.64761 10.6606C4.68527 10.4873 4.72294 10.314 4.76815 10.1483C5.40852 9.77912 6.07902 9.4401 6.7646 9.13875C8.33163 8.43811 10.0117 7.91828 11.752 7.60186C13.0478 7.36831 14.3963 7.24023 15.7599 7.24023C21.2671 7.24023 26.262 9.23669 30.1645 12.4913C30.3152 12.6118 30.4583 12.7324 30.6015 12.8604C30.9556 13.1693 31.3021 13.4933 31.6412 13.8398Z" fill="#673AB7"/>
<path d="M31.6412 16.0837V19.9561L31.2117 20.8526L30.3981 22.5477L30.3905 22.5703C30.3905 22.8943 30.3755 23.1881 30.3529 23.4518C30.2775 24.3181 30.0666 24.8681 29.72 25.2071C29.4714 25.4633 29.1625 25.6064 28.7783 25.6818C28.7557 25.6893 28.7256 25.6893 28.703 25.6968C28.5824 25.7194 28.4544 25.7345 28.3188 25.7345C27.8517 25.7797 27.3017 25.7496 26.6689 25.7044C26.6011 25.7044 26.5257 25.6968 26.4504 25.6893C25.9908 25.6592 25.5011 25.629 24.9587 25.6064C24.6649 25.5989 24.356 25.5914 24.0396 25.5914H24.0245L23.2636 25.6516H23.2561L21.5459 25.7722L19.5946 25.9228L19.3083 25.9454L17.0256 26.1112L15.8428 26.2016L14.6751 26.2845C14.4717 26.2845 14.2758 26.2845 14.0799 26.2769C14.0799 26.2769 14.0724 26.2694 14.0724 26.2769C13.2211 26.2619 12.4601 26.2091 11.7821 26.081C11.1568 25.9756 10.6068 25.8098 10.1397 25.5612C9.65757 25.3277 9.25828 24.9962 8.93433 24.5743C8.62544 24.1599 8.39943 23.6401 8.25629 23.0148C8.25629 23.0073 8.25629 23.0073 8.25629 23.0073C8.15082 22.5025 8.09054 21.9149 8.09054 21.2519L7.97754 21.0485L7.30703 19.8506L7.20909 19.6849L7.15636 19.5794L6.45571 18.3363L6.10916 17.711L5.6722 16.935L4.91882 15.5865L4.51953 14.8783V12.1059C5.1825 11.6689 5.86808 11.2847 6.57625 10.9381C7.43511 10.5012 8.32409 10.132 9.25075 9.83068C10.2603 9.49919 11.315 9.23551 12.3923 9.06223C13.4847 8.88142 14.6073 8.79102 15.7599 8.79102C20.8829 8.79102 25.584 10.6217 29.2077 13.6654C29.3735 13.7934 29.5317 13.9366 29.6899 14.0722C30.3227 14.6372 30.9254 15.2475 31.4754 15.8878C31.5357 15.9556 31.596 16.0159 31.6412 16.0837Z" fill="#8E24AA"/>
<path d="M31.6412 18.6156V24.0625C31.4603 23.957 31.2117 23.8289 30.9028 23.6933C30.7371 23.6105 30.5488 23.5276 30.3529 23.4523C30.0666 23.3242 29.7577 23.2036 29.4112 23.0831C29.3358 23.053 29.2605 23.0304 29.1776 23.0078C29.042 22.955 28.8989 22.9098 28.7557 22.8646C28.3112 22.729 27.8215 22.6009 27.3092 22.4879C27.1133 22.4503 26.9099 22.4126 26.7065 22.3825C26.0511 22.2695 25.3504 22.2016 24.6197 22.1941C24.5594 22.1866 24.4916 22.1866 24.4313 22.1866L22.4951 22.2016L19.8583 22.2167H19.8508L14.208 22.2619C12.4149 22.2619 11.315 22.6913 10.652 22.8646C10.652 22.8646 10.6445 22.8646 10.6445 22.8722C9.94386 23.053 9.72538 22.94 9.66511 21.712C9.65004 21.3729 9.6425 20.936 9.6425 20.4011L9.22061 20.0771L8.4823 19.5196L8.03027 19.1731L7.93987 19.1053L6.68926 18.156L6.50092 18.0129L6.10916 17.7115L5.38592 17.1691L4.51953 16.5061V13.9446C4.59487 13.8843 4.66267 13.8316 4.73801 13.7864C5.83041 13.033 6.99815 12.3927 8.23369 11.8728C9.33362 11.4057 10.4938 11.0366 11.6842 10.7729C12.0081 10.7051 12.3396 10.6373 12.6786 10.5921C13.6806 10.4188 14.7127 10.3359 15.7599 10.3359C20.2877 10.3359 24.4464 11.9105 27.7462 14.5172C28.2434 14.9089 28.7256 15.3233 29.1776 15.7678C29.7954 16.3554 30.3755 16.9807 30.9104 17.6437C31.0158 17.7793 31.1213 17.9149 31.2268 18.0581C31.3699 18.2389 31.5055 18.4272 31.6412 18.6156Z" fill="#C2185B"/>
<path d="M31.6412 21.6374V24.1085C31.6412 24.5982 31.596 25.0803 31.5055 25.5474C31.3699 26.2405 31.1364 26.9035 30.82 27.5213C30.6542 27.5589 30.4659 27.5589 30.2549 27.5288C29.7803 27.4459 29.2228 27.1973 28.6201 26.8734C28.59 26.8658 28.5598 26.8508 28.5372 26.8357C28.3489 26.7378 28.153 26.6323 27.9571 26.5117C27.5578 26.2933 27.136 26.0522 26.7141 25.8262C26.6237 25.781 26.5332 25.7358 26.4504 25.6906C25.9682 25.4419 25.471 25.2159 24.9738 25.0427C24.9738 25.0427 24.9738 25.0427 24.9662 25.0427C24.8607 25.005 24.7477 24.9673 24.6347 24.9372C24.2053 24.8166 23.7683 24.7413 23.3465 24.7413L22.5177 24.5002L18.8488 23.438C18.8488 23.438 18.8488 23.438 18.8413 23.438L16.5887 22.7825H16.5811L15.6017 22.4962C12.769 22.4962 11.0287 23.7016 10.1849 23.2421C9.85345 23.0688 9.65757 22.6318 9.58977 21.773C9.56717 21.5319 9.55963 21.2607 9.55963 20.9443L8.67818 20.5149L8.64051 20.4998H8.63298L8.00014 20.1834L7.30703 19.8519L7.25429 19.8293L7.12622 19.7615L5.6496 19.0458L4.51953 18.4958V15.9117C4.64761 15.7987 4.78321 15.6932 4.91882 15.5878C5.06196 15.4748 5.20511 15.3693 5.34825 15.2563C5.35578 15.2563 5.35578 15.2563 5.35578 15.2563C6.24477 14.6159 7.18649 14.0509 8.18848 13.5838C9.35622 13.0263 10.5993 12.5968 11.8876 12.3181C12.0759 12.2729 12.2718 12.2277 12.4677 12.1976C13.5375 11.9941 14.6374 11.8887 15.7599 11.8887C19.7302 11.8887 23.3766 13.1769 26.3148 15.3467C27.1661 15.9795 27.9571 16.6802 28.6804 17.4411C29.2755 18.0664 29.8255 18.7444 30.3227 19.4526C30.3604 19.5053 30.3981 19.5581 30.4357 19.6033C30.7145 20.0101 30.9706 20.4244 31.2117 20.8539C31.3699 21.11 31.5055 21.3737 31.6412 21.6374Z" fill="#D81B60"/>
<path d="M31.5055 25.5479C31.3699 26.241 31.1364 26.904 30.82 27.5218C30.6768 27.8005 30.5186 28.0642 30.3453 28.3204C30.2399 28.4786 30.1269 28.6292 30.0139 28.7724C29.7426 28.6669 29.3433 28.5162 28.8537 28.3505C28.8537 28.3505 28.8537 28.3505 28.8537 28.343C28.4845 28.2149 28.0626 28.0793 27.6106 27.9512C27.4825 27.9135 27.3544 27.8759 27.2188 27.8382C26.6839 27.695 26.1264 27.567 25.584 27.4916C25.132 27.4163 24.6875 27.3711 24.2731 27.3711L23.9266 27.2732H23.919L22.0958 26.7458L20.9733 26.4218L19.7227 26.0602H19.7152L19.3083 25.9472L14.3888 24.5309L12.9724 24.124L11.9177 23.8754L10.2 23.4686L9.98906 23.4159C9.98906 23.4159 9.98906 23.4159 9.98152 23.4159L8.25629 23.0166C8.25629 23.009 8.25629 23.009 8.25629 23.009L7.9474 22.9412L7.78919 22.9036L6.53105 22.6097L6.38791 22.5721L5.31811 21.6906L4.51953 21.0201V17.9463C4.79828 17.6751 5.08457 17.419 5.38592 17.1704C5.47632 17.0875 5.57426 17.0121 5.6722 16.9368C5.76261 16.8615 5.86054 16.7861 5.95848 16.7108C6.64406 16.191 7.3673 15.7239 8.13575 15.3246C9.11514 14.7972 10.1548 14.3753 11.2472 14.074C11.4581 14.0062 11.6691 13.9459 11.8876 13.9007C13.1231 13.5918 14.4189 13.4336 15.7599 13.4336C19.1275 13.4336 22.2616 14.4507 24.8532 16.191C26.1415 17.0573 27.3017 18.097 28.2811 19.2798C28.7783 19.875 29.2303 20.5003 29.6296 21.1633C29.6673 21.216 29.6974 21.2612 29.7276 21.3139C29.9687 21.7132 30.1947 22.1276 30.3981 22.5495C30.5864 22.9262 30.7522 23.3029 30.9028 23.6946C31.1439 24.2973 31.3398 24.9151 31.5055 25.5479Z" fill="#F50057"/>
<path d="M30.3453 28.3192C30.2399 28.4774 30.1269 28.6281 30.0139 28.7712C29.6824 29.1856 29.3207 29.5622 28.9139 29.8937C28.5598 30.1876 28.1831 30.4512 27.7839 30.6772C27.6332 30.6396 27.4825 30.5944 27.3243 30.5341C26.8271 30.3608 26.3072 30.0745 25.8251 29.7732C25.1018 29.3136 24.4765 28.8164 24.1978 28.5904C24.0923 28.5 24.0396 28.4548 24.0396 28.4548L22.7588 28.3418L22.6006 28.3267L20.9432 28.1836L19.2255 28.0329L16.6866 27.8069L12.6636 27.4528L12.6485 27.4453L11.2321 26.7597L9.80071 26.0666L8.64804 25.5091L8.39943 25.3885L8.09054 25.2379L7.02075 24.718L5.59686 24.0324L5.15237 23.814L4.51953 23.6181V20.2505C4.87362 19.8286 5.25031 19.4293 5.6496 19.0451C5.90575 18.804 6.17696 18.5629 6.45571 18.3369C6.50092 18.2992 6.54612 18.2616 6.59132 18.2314C6.62146 18.1938 6.65913 18.1712 6.68926 18.1561C7.13375 17.7945 7.60085 17.4705 8.08301 17.1767C8.64051 16.8226 9.22815 16.5062 9.83838 16.2425C10.4938 15.9487 11.1794 15.7001 11.8876 15.5117C13.1156 15.1652 14.4189 14.9844 15.7599 14.9844C18.8337 14.9844 21.674 15.9186 24.017 17.5233C25.5162 18.5479 26.812 19.8437 27.8366 21.3429C28.1756 21.8251 28.477 22.3373 28.7557 22.8647C28.8537 23.0606 28.9516 23.2565 29.0345 23.4523C29.1249 23.6407 29.2077 23.829 29.2906 24.0174C29.4488 24.4091 29.592 24.8009 29.72 25.2077C29.9611 25.9611 30.1419 26.7295 30.2549 27.5281C30.2926 27.7918 30.3227 28.0555 30.3453 28.3192Z" fill="#FF1744"/>
<path d="M28.9215 29.6983C28.9215 29.7586 28.9215 29.8264 28.9139 29.8942C28.5598 30.188 28.1831 30.4517 27.7839 30.6777C27.6181 30.7681 27.4524 30.8586 27.2791 30.9339C27.1058 31.0168 26.9325 31.0921 26.7517 31.1599C26.4956 31.0243 26.149 30.8586 25.7799 30.7003C25.26 30.4668 24.695 30.2559 24.258 30.188C24.1526 30.1654 24.0546 30.1579 23.9642 30.1579L22.7287 29.9997H22.7136L21.1767 29.7963L19.6248 29.5929L18.9015 29.5025L13.206 28.7642C12.8368 28.7642 12.4451 28.7416 12.0382 28.6888C11.541 28.6436 11.0212 28.5683 10.5014 28.4628C9.98906 28.3724 9.46923 28.2519 8.972 28.1238C8.45217 28.0033 7.93987 27.8601 7.46524 27.7245C6.91527 27.5588 6.40298 27.4005 5.97355 27.2574C5.61946 27.1444 5.31811 27.0389 5.08457 26.9561C4.94896 26.6321 4.83595 26.2931 4.75308 25.9465C4.59487 25.3589 4.51953 24.7411 4.51953 24.1083V22.8501C4.76061 22.4509 5.02429 22.0591 5.31811 21.6899C5.85301 20.9818 6.46325 20.3339 7.12622 19.7613C7.14882 19.7312 7.17896 19.7086 7.20156 19.6935L7.20909 19.686C7.44264 19.475 7.68372 19.2867 7.93987 19.1059C7.97 19.0757 8.00014 19.0531 8.03027 19.0305C8.15082 18.9401 8.27889 18.8497 8.4145 18.7668C9.49183 18.0361 10.6822 17.4635 11.9554 17.0793C13.1608 16.7176 14.434 16.5293 15.7599 16.5293C18.3892 16.5293 20.8452 17.3053 22.8944 18.6312C24.4087 19.6031 25.7121 20.8838 26.7065 22.383C26.8271 22.5563 26.9401 22.7296 27.0531 22.9104C27.5729 23.7919 28.0023 24.7411 28.3188 25.7356C28.3564 25.8486 28.3866 25.9616 28.4167 26.0821C28.477 26.2855 28.5297 26.4965 28.5749 26.7074C28.59 26.7602 28.605 26.8129 28.6201 26.8732C28.7256 27.3478 28.8009 27.845 28.8537 28.3423C28.8537 28.3498 28.8537 28.3498 28.8537 28.3498C28.8989 28.7943 28.9215 29.2463 28.9215 29.6983Z" fill="#FF5722"/>
<path d="M27.3703 29.6991C27.3703 29.9628 27.3553 30.2491 27.3251 30.5354C27.3101 30.671 27.295 30.8066 27.2799 30.9347C27.1066 31.0175 26.9334 31.0929 26.7526 31.1607C26.4135 31.2888 26.067 31.3942 25.7129 31.4696C25.4718 31.5223 25.2232 31.5675 24.9746 31.5901H24.967C24.7335 31.447 24.4623 31.2737 24.1835 31.0778C23.6788 30.7237 23.1514 30.3244 22.7295 30.0005C22.722 29.9929 22.722 29.9929 22.7144 29.9854C22.27 29.6464 21.9535 29.3902 21.9535 29.3902L21.155 29.4204L19.6181 29.4731L18.9024 29.5032L16.0244 29.6087L13.591 29.6991C13.4328 29.7067 13.2445 29.7067 13.0109 29.6991H13.0034C12.687 29.6916 12.3103 29.669 11.8959 29.6313C11.4138 29.5937 10.8864 29.5485 10.3515 29.4957C9.83168 29.4354 9.30431 29.3752 8.79955 29.3149C8.24205 29.2546 7.71468 29.1868 7.26266 29.1266C6.90857 29.0814 6.59968 29.0437 6.35107 29.0136C6.14012 28.7725 5.95178 28.5239 5.77097 28.2526C5.49975 27.8458 5.2662 27.4164 5.08539 26.9568C4.94978 26.6329 4.83678 26.2939 4.75391 25.9473C4.97239 25.2768 5.25867 24.644 5.59769 24.0337C5.86891 23.5365 6.18533 23.0619 6.53188 22.6098C6.8709 22.1653 7.24006 21.751 7.63935 21.3743V21.3668C7.75235 21.2538 7.86536 21.1483 7.97837 21.0503C8.18931 20.8545 8.40779 20.6737 8.63381 20.5004H8.64134C8.64887 20.4853 8.65641 20.4853 8.66394 20.4778C8.84475 20.3346 9.0331 20.2066 9.22144 20.0785C10.3364 19.3176 11.5946 18.7525 12.9507 18.4211C13.8472 18.2026 14.7889 18.082 15.7608 18.082C17.6743 18.082 19.4825 18.5416 21.0721 19.3703H21.0796C22.4432 20.0709 23.6486 21.0353 24.6205 22.1955C25.1554 22.8132 25.615 23.4913 25.9916 24.207C26.2553 24.6892 26.4813 25.1939 26.6697 25.7062C26.6848 25.7514 26.6998 25.7891 26.7149 25.8268C26.843 26.2034 26.956 26.5952 27.0539 26.987C27.1217 27.2657 27.1744 27.552 27.2197 27.8383C27.2347 27.9287 27.2498 28.0116 27.2573 28.102C27.3327 28.6218 27.3703 29.1567 27.3703 29.6991Z" fill="#FF6F00"/>
<path d="M25.8264 29.6979V29.7733C25.8264 30.0294 25.8038 30.3534 25.7812 30.6999C25.7586 30.9561 25.736 31.2198 25.7134 31.4684C25.4723 31.5211 25.2237 31.5663 24.9751 31.5889H24.9676C24.6813 31.6266 24.4025 31.6417 24.1087 31.6417H22.7903L22.504 31.5588L21.0199 31.1068L19.5131 30.6547L16.025 29.6075L14.5182 29.1555C14.5182 29.1555 13.8929 29.4041 13.0115 29.6979H13.0039C12.6649 29.811 12.2957 29.9315 11.904 30.052C11.4143 30.1952 10.8945 30.3383 10.3822 30.4513C9.85479 30.5719 9.33496 30.6623 8.86787 30.6999C8.72473 30.715 8.58159 30.7225 8.45351 30.7225C8.03162 30.489 7.6248 30.2102 7.25564 29.9014C6.93169 29.6301 6.63034 29.3363 6.35159 29.0124C6.14064 28.7713 5.9523 28.5227 5.77148 28.2515C5.82422 27.9124 5.88449 27.581 5.9749 27.257C6.20091 26.3605 6.555 25.5016 7.02209 24.7181C7.27824 24.2736 7.56452 23.8442 7.89601 23.4449C7.90354 23.4223 7.92615 23.3997 7.94875 23.3846C7.94121 23.3771 7.94875 23.3771 7.94875 23.3771C8.04669 23.249 8.15216 23.1285 8.25763 23.0155C8.25763 23.0079 8.25763 23.0079 8.25763 23.0079C8.56652 22.6765 8.88294 22.36 9.22949 22.0662C9.35003 21.9683 9.46304 21.8703 9.59111 21.7724C9.61371 21.7498 9.63632 21.7347 9.66645 21.7121C11.3616 20.4163 13.4785 19.6328 15.7613 19.6328C18.3529 19.6328 20.711 20.6047 22.4965 22.2018C23.3553 22.9778 24.0861 23.9045 24.6361 24.9366C24.6813 25.0119 24.7265 25.0948 24.7642 25.1777C24.832 25.3133 24.8998 25.4564 24.96 25.6071C25.2086 26.1495 25.4045 26.7221 25.5401 27.3097C25.5552 27.37 25.5703 27.4303 25.5853 27.4906C25.6456 27.7693 25.6983 28.0556 25.736 28.3419C25.7963 28.7864 25.8264 29.2384 25.8264 29.6979Z" fill="#FF9800"/>
<path d="M24.2741 29.6984C24.2741 29.8491 24.2666 30.0149 24.2591 30.1881C24.244 30.4669 24.2214 30.7682 24.1837 31.0771C24.1686 31.2655 24.1385 31.4538 24.1084 31.6422H19.9799L19.1813 31.5141L16.0623 31.0169L15.6178 30.9491L14.6007 30.7833C14.1562 30.7833 13.1919 30.9792 12.1749 31.1675C11.64 31.2655 11.0975 31.3709 10.6078 31.4387C10.5476 31.4463 10.4873 31.4538 10.4346 31.4613H10.427C9.89966 31.3483 9.38736 31.1751 8.9052 30.9491C8.75452 30.8812 8.60385 30.8059 8.45317 30.723C8.03128 30.4895 7.62446 30.2107 7.2553 29.9019C7.24777 29.8114 7.24023 29.7361 7.24023 29.6984C7.24023 29.5026 7.24777 29.3142 7.26284 29.1259C7.29297 28.6437 7.36078 28.1766 7.46625 27.7246C7.63199 27.039 7.87307 26.376 8.19703 25.7658C8.2573 25.6377 8.3251 25.5097 8.40044 25.3891C8.43057 25.3288 8.46824 25.2761 8.49838 25.2158C8.63398 24.9974 8.78466 24.7864 8.93534 24.5755C9.25175 24.1611 9.60584 23.7694 9.98253 23.4153C9.99007 23.4153 9.99007 23.4153 9.99007 23.4153C10.0202 23.3851 10.0503 23.355 10.0805 23.3324C10.1181 23.3023 10.1483 23.2646 10.1859 23.242C10.3366 23.1064 10.4873 22.9858 10.6455 22.8728C10.6455 22.8653 10.653 22.8653 10.653 22.8653C12.0769 21.803 13.8398 21.1777 15.7609 21.1777C17.2526 21.1777 18.6389 21.5544 19.8518 22.2174H19.8593C20.899 22.79 21.803 23.5659 22.5187 24.5001C22.7975 24.8618 23.0461 25.246 23.2571 25.6528H23.2646C23.3023 25.7281 23.3399 25.8035 23.3776 25.8788C23.6036 26.3233 23.7844 26.7904 23.92 27.2726H23.9276C23.9351 27.3102 23.9502 27.3479 23.9577 27.3856C24.0481 27.7095 24.1234 28.041 24.1762 28.38C24.1837 28.4478 24.1912 28.5232 24.1988 28.591C24.2515 28.9526 24.2741 29.3218 24.2741 29.6984Z" fill="#FFC107"/>
<path d="M22.7285 29.6144C22.7285 29.7349 22.7285 29.863 22.7134 29.9835V29.9911C22.7134 29.9986 22.7134 29.9986 22.7134 29.9986C22.6984 30.541 22.623 31.0759 22.5025 31.5581C22.5025 31.5882 22.495 31.6108 22.4799 31.641H18.9616L16.0611 31.0157L15.6769 30.9328L15.6166 30.9479L12.3997 31.6108L12.2566 31.641H12.0531C11.571 31.641 11.0964 31.5958 10.6368 31.5054C10.569 31.4903 10.5012 31.4752 10.4334 31.4602H10.4258C9.89848 31.3472 9.38618 31.1739 8.90402 30.9479C8.88895 30.865 8.87389 30.7821 8.86635 30.6993C8.81362 30.3753 8.79102 30.0363 8.79102 29.6973C8.79102 29.5692 8.79102 29.4411 8.79855 29.313C8.82115 28.9062 8.88142 28.5069 8.97183 28.1227C9.0321 27.8364 9.11497 27.5577 9.21291 27.294C9.29578 27.0604 9.39372 26.8344 9.49919 26.6159C9.5896 26.4276 9.69507 26.2468 9.80054 26.066C9.90602 25.8927 10.019 25.727 10.1396 25.5612C10.4409 25.1469 10.795 24.7626 11.1868 24.4236C11.4128 24.2277 11.6614 24.0394 11.9175 23.8737C13.0175 23.1504 14.3359 22.7285 15.7598 22.7285C16.0385 22.7285 16.3097 22.7436 16.5734 22.7813H16.5885C17.3946 22.8717 18.148 23.0977 18.8411 23.4367C18.8486 23.4367 18.8486 23.4367 18.8486 23.4367C19.941 23.9716 20.8677 24.7777 21.5457 25.7722C21.6587 25.9379 21.7717 26.1187 21.8697 26.2995C21.9525 26.4427 22.0279 26.5933 22.0957 26.744C22.2012 26.9776 22.2991 27.2262 22.382 27.4748H22.3895C22.4724 27.7536 22.5477 28.0323 22.6004 28.3261V28.3337C22.6833 28.748 22.7285 29.1774 22.7285 29.6144Z" fill="#FFD54F"/>
<path d="M21.1771 29.7739V29.7965C21.1771 30.241 21.1243 30.678 21.0188 31.1074C20.9812 31.2882 20.9284 31.469 20.8606 31.6423H17.4855L15.7603 31.1677L14.035 31.6423H12.0536C11.5715 31.6423 11.0968 31.5971 10.6373 31.5067C10.6222 31.4841 10.6147 31.4615 10.6072 31.4389C10.5017 31.1149 10.4188 30.791 10.3811 30.452C10.351 30.2335 10.3359 30.0075 10.3359 29.7739C10.3359 29.6835 10.3359 29.5856 10.351 29.4952C10.3585 29.1411 10.4113 28.7945 10.5017 28.4631C10.5469 28.237 10.6147 28.0186 10.7051 27.8076C10.7352 27.7021 10.7804 27.6042 10.8332 27.5063C10.9462 27.2501 11.0818 27.0015 11.2325 26.7604C11.3982 26.5193 11.579 26.2933 11.7824 26.0824C12.0235 25.8112 12.2947 25.5625 12.6036 25.3591C13.131 24.9749 13.7337 24.6886 14.3891 24.5304C14.8261 24.4099 15.2856 24.3496 15.7603 24.3496C17.267 24.3496 18.6156 24.9523 19.595 25.9242C19.6326 25.9618 19.6778 26.007 19.7155 26.0598H19.723C19.8285 26.1728 19.9264 26.2858 20.0244 26.4139C20.3031 26.768 20.5367 27.1522 20.7175 27.5741C20.8079 27.7699 20.8832 27.9734 20.9435 28.1843C20.951 28.2144 20.9586 28.237 20.9661 28.2672C21.0716 28.6363 21.1394 29.0206 21.1545 29.4198C21.1695 29.5329 21.1771 29.6534 21.1771 29.7739Z" fill="#FFE082"/>
<path d="M19.6334 29.7728C19.6334 30.0816 19.5957 30.3755 19.5129 30.6542C19.4375 30.9556 19.3245 31.2418 19.1814 31.5131C19.1588 31.5583 19.106 31.6411 19.106 31.6411H12.416C12.4085 31.6336 12.401 31.6185 12.401 31.611C12.3106 31.4679 12.2352 31.3247 12.175 31.1665C12.0243 30.82 11.9339 30.4433 11.9037 30.0515C11.8887 29.9611 11.8887 29.8632 11.8887 29.7728C11.8887 29.7276 11.8887 29.6748 11.8962 29.6296C11.9037 29.2981 11.9489 28.9817 12.0393 28.6879C12.1147 28.4167 12.2126 28.1681 12.3407 27.927C12.3407 27.927 12.3482 27.9194 12.3482 27.9119C12.4386 27.7537 12.5366 27.5955 12.6496 27.4448C13.0187 26.9476 13.5084 26.5408 14.0735 26.2771C14.081 26.2771 14.081 26.2771 14.081 26.2771C14.2618 26.1867 14.4502 26.1113 14.646 26.0586C14.646 26.0586 14.646 26.0586 14.6536 26.0586C15.0001 25.9531 15.3768 25.9004 15.761 25.9004C16.2055 25.9004 16.635 25.9682 17.0267 26.1113C17.1699 26.149 17.3055 26.2093 17.4411 26.2771C17.4411 26.2771 17.4411 26.2771 17.4486 26.2771C18.0965 26.586 18.6465 27.0681 19.0232 27.6708C19.0985 27.7838 19.1663 27.9044 19.2266 28.0324C19.2567 28.0852 19.2868 28.1455 19.3094 28.1982C19.4827 28.59 19.5882 29.0194 19.6183 29.4714C19.6259 29.5091 19.6259 29.5467 19.6259 29.5919C19.6334 29.6522 19.6334 29.7125 19.6334 29.7728Z" fill="#FFECB3"/>
<path d="M22.6013 8.28711H13.5608C10.6226 8.28711 8.28711 10.6226 8.28711 13.5608V22.6013C8.28711 25.5395 10.6226 27.8749 13.5608 27.8749H22.6013C25.5395 27.8749 27.8749 25.5395 27.8749 22.6013V13.5608C27.8749 10.6226 25.5395 8.28711 22.6013 8.28711Z" stroke="white" stroke-width="2" stroke-miterlimit="10" stroke-linecap="round" stroke-linejoin="round"/>
<path d="M23.3549 12.8075C23.771 12.8075 24.1083 12.4702 24.1083 12.0542C24.1083 11.6381 23.771 11.3008 23.3549 11.3008C22.9389 11.3008 22.6016 11.6381 22.6016 12.0542C22.6016 12.4702 22.9389 12.8075 23.3549 12.8075Z" fill="white"/>
<path d="M18.0808 22.6011C20.5773 22.6011 22.6011 20.5773 22.6011 18.0808C22.6011 15.5843 20.5773 13.5605 18.0808 13.5605C15.5843 13.5605 13.5605 15.5843 13.5605 18.0808C13.5605 20.5773 15.5843 22.6011 18.0808 22.6011Z" stroke="white" stroke-width="2" stroke-miterlimit="10" stroke-linecap="round" stroke-linejoin="round"/>
</svg>
