<svg fill="none" height="37" viewBox="0 0 37 37" width="37" xmlns="http://www.w3.org/2000/svg"><path d="m31.3935 10.1548c-.3014.1959-.7308.3767-.9116.5801-.0678.0678-.1055.1431-.0904.2185v.776l-.226.7609-.226.7534-.2486.8287-.5123 1.6951-.4973 1.6725-.3767 1.2581c0 .1959-.0075.3918-.0226.5801-.0527.7233-.2034 1.4164-.4444 2.0643-.1432.3993-.3165.7835-.5274 1.1451-.0754.1431-.1658.2863-.2562.4219-.3013.4746-.6629.9116-1.0622 1.2958-.3089.3089-.6479.5952-1.0171.8363 0 0 0 0-.0075 0-.0603.0527-.1281.0979-.2034.1356-.2336.1582-.4822.2938-.7383.4143-.1733.0904-.3466.1658-.5274.2336-.0377.0226-.0829.0376-.1205.0527-.4295.2034-.9267.339-1.4239.4068-.0302.0076-.0528.0076-.0829.0151-.3014.0527-.5952.0979-.8965.1205-.1356.0151-.2788.0226-.4144.0226l-.5349-.0301-2.5765-.1356c0-.0075-.0076 0-.0076 0l-1.2958-.0678c-.0979 0-.2034 0-.3013-.0075-.4069-.0151-.7986-.0603-1.1904-.1432-.0075 0-.0075 0-.0075 0-.7157-.1356-1.4013-.3767-2.0417-.7006-.354-.1808-.7006-.3842-1.0246-.6178-.1356-.0979-.2636-.2034-.3917-.3164-.3616-.3014-.6856-.6253-.9869-.9568-.0452-.0452-.0829-.0904-.1206-.1356-.0452-.0452-.09038-.0979-.12805-.1432-.28628-.3616-.52736-.7307-.72324-1.1225-.18081-.3465-.32396-.7157-.43696-1.1225-.0452-.1432-.08287-.2788-.11301-.4294-.00753-.0076-.01507-.0226-.01507-.0377-.07533-.3089-.14314-.6329-.18081-.9568-.0452-.2486-.0678-.4972-.0678-.7534-.01507-.0979-.01507-.2034-.01507-.3013l1.43895-2.2225 1.40886-2.1697.6403-.987.5801-.8889.1959-.3089v-.776c.0151-.1733.0226-.3541.0151-.5198-.0076-.5274-.113-1.0397-.2863-1.5294-.1657-.51983-.3993-1.00952-.6404-1.46155-.2863-.51983-.5876-.98693-.8362-1.40882-.3692-.61777-.6253-1.12253-.5575-1.47662.5424-.12807 1.115-.19588 1.6951-.19588h12.054c3.1492 0 5.8613 1.95879 6.9838 4.71615.1206.29382.2261.6027.3014.91912z" fill="#304ffe"/><path d="m31.6411 12.0533v.2034l-1.0396.6027-.663.3843-.7308.4218-1.4615.8514-1.4315.8287-1.4615.8438-.5801.339c0 .3616-.0904.6931-.2562.9944-.2335.437-.6253.7986-1.1225 1.1075-.5048.3089-1.1225.5575-1.8156.7383 0 0 0-.0075-.0076 0-2.682.6931-6.3434.3767-8.1214-.9492-.4972-.3692-.8438-.8212-.9945-1.3411-.0452-.1732-.0678-.3616-.0678-.5499v-5.4168c.0076-.113-.0678-.226-.2034-.339-.4068-.324-1.3636-.6329-2.43339-.94175-.83625-.23355-1.73277-.4671-2.48615-.69311-.59516-.18081-1.09993-.36162-1.40128-.5349.13561-.26368.29382-.52736.45956-.77598 1.05473-1.54442 2.66696-2.68202 4.53536-3.11145.5424-.12807 1.115-.19588 1.6951-.19588h8.1365c4.0456.70818 7.7748 2.35808 10.9014 4.71615.1205.29382.226.6027.3013.91912.1356.4972.2185 1.0095.2411 1.5444.0075.113.0075.2336.0075.3541z" fill="#4928f4"/><path d="m31.642 12.0538v3.3224l-.1658.5123-.565 1.7554-.5876 1.8081-.3089.9643-.2863.8965-.2787.8514-.2713.8437-.1431.4445-.1883.5877c0 .5725-.0151 1.0773-.0528 1.5067-.0075.0452-.0151.0904-.0151.1356-.0452.3993-.1054.7384-.2034 1.0246-.0075.0452-.0226.0904-.0376.1281-.1959.5424-.4897.889-.9267 1.115-.1055.0603-.226.1055-.3541.1507-.3993.1356-.904.2034-1.5218.2411-.452.0301-.9719.0376-1.5595.0376h-.5198l-.8965-.0376-.1583-.0076-1.6348-.0678-1.6574-.0678-5.462-.226-1.4164-.0603h-.1958c-.5877-.0075-1.0924-.0452-1.5294-.1054-.6328-.098-1.12253-.2637-1.49169-.5123-.52736-.339-.83625-.8363-1.01706-1.5294-.0452-.1657-.08287-.339-.10547-.5274-.07534-.4369-.11301-.9417-.13561-1.5067 0-.113 0-.226-.00753-.3466-.00754-.0075 0-.0075 0-.0075v-.437c-.00754-.2184-.00754-.4444-.00754-.678l.03767-1.2129.0226-.8664.03014-1.0095v-.1432l.05273-1.8533.05274-1.8533.05274-1.7403.0452-1.7102.01507-.452c0-.2336-.79105-.3692-1.6725-.4822-.70065-.0904-1.46909-.1733-1.92865-.2787.03767-.1733.07534-.3466.12054-.5123.13561-.54245.33902-1.05475.59517-1.54445.1356-.26368.29381-.52736.45956-.77598 1.6273-.71571 3.3224-1.27321 5.09279-1.63483 1.552-.32395 3.1718-.49723 4.8443-.49723 5.5448 0 10.6678 1.87591 14.721 5.04009.3917.3014.776.6253 1.1527.9643.0075.113.0075.2336.0075.3541z" fill="#6200ea"/><path d="m31.6412 13.8398v3.4204l-.4144.7985-.7911 1.5445-.4218.8136-.3843.7459-.1657.3239c0 .2336 0 .4596-.0151.6781 0 .3239-.015.6328-.0376.9191-.0302.339-.0754.6479-.1206.9342-.113.5951-.2712 1.1074-.4972 1.5293-.0302.0528-.0603.1055-.0904.1507-.0829.1356-.1808.2637-.2863.3842-.1356.1658-.2863.3089-.4596.4295-.2561.1958-.5575.354-.904.4746-.4294.1582-.9267.2637-1.5143.3239-.3842.0377-.8061.0603-1.2657.0603l-.3164.0151-1.567.0904h-.0076l-1.6649.0979-1.6951.098-2.3355.1356-2.8402.1657-.4144.0226c-.3842 0-.7458-.0226-1.0924-.0678-.0377-.0075-.0678-.0151-.1055-.0151-.5123-.0828-.9794-.2184-1.4013-.4068-.5123-.226-.95675-.5274-1.33344-.889-.33148-.3239-.61777-.6931-.85132-1.1074-.05273-.098-.10547-.1884-.15067-.2939-.22601-.4445-.40682-.9417-.54243-1.4841-.0226-.0904-.04521-.1884-.06027-.2863-.04521-.1733-.08288-.3541-.10548-.5424-.08287-.4822-.12807-.9945-.15067-1.5294v-.0075c-.00754-.2185-.01507-.4294-.01507-.6555l-.36916-.8814-.05273-.1356-.0452-.113-.56504-1.3486-.0904-.2185-.54244-1.3033-.6027-1.454s0 0-.00753 0l-.61024-1.4691-.21848-.5349v-1.1979c0-.4746.0452-.9417.12808-1.3937.03766-.1733.07533-.3466.12054-.5123.64037-.36918 1.31087-.7082 1.99645-1.00955 1.56703-.70064 3.2471-1.22047 4.9874-1.53689 1.2958-.23355 2.6443-.36163 4.0079-.36163 5.5072 0 10.5021 1.99646 14.4046 5.25107.1507.1205.2938.2411.437.3691.3541.3089.7006.6329 1.0397.9794z" fill="#673ab7"/><path d="m31.6412 16.0837v3.8724l-.4295.8965-.8136 1.6951-.0076.0226c0 .324-.015.6178-.0376.8815-.0754.8663-.2863 1.4163-.6329 1.7553-.2486.2562-.5575.3993-.9417.4747-.0226.0075-.0527.0075-.0753.015-.1206.0226-.2486.0377-.3842.0377-.4671.0452-1.0171.0151-1.6499-.0301-.0678 0-.1432-.0076-.2185-.0151-.4596-.0301-.9493-.0603-1.4917-.0829-.2938-.0075-.6027-.015-.9191-.015h-.0151l-.7609.0602h-.0075l-1.7102.1206-1.9513.1506-.2863.0226-2.2827.1658-1.1828.0904-1.1677.0829c-.2034 0-.3993 0-.5952-.0076 0 0-.0075-.0075-.0075 0-.8513-.015-1.6123-.0678-2.2903-.1959-.6253-.1054-1.1753-.2712-1.6424-.5198-.48213-.2335-.88142-.565-1.20537-.9869-.30889-.4144-.5349-.9342-.67804-1.5595 0-.0075 0-.0075 0-.0075-.10547-.5048-.16575-1.0924-.16575-1.7554l-.113-.2034-.67051-1.1979-.09794-.1657-.05273-.1055-.70065-1.2431-.34655-.6253-.43696-.776-.75338-1.3485-.39929-.7082v-2.7724c.66297-.437 1.34855-.8212 2.05672-1.1678.85886-.4369 1.74784-.8061 2.6745-1.10742 1.00955-.33149 2.06425-.59517 3.14155-.76845 1.0924-.18081 2.215-.27121 3.3676-.27121 5.123 0 9.8241 1.83068 13.4478 4.87438.1658.128.324.2712.4822.4068.6328.565 1.2355 1.1753 1.7855 1.8156.0603.0678.1206.1281.1658.1959z" fill="#8e24aa"/><path d="m31.6412 18.6156v5.4469c-.1809-.1055-.4295-.2336-.7384-.3692-.1657-.0828-.354-.1657-.5499-.241-.2863-.1281-.5952-.2487-.9417-.3692-.0754-.0301-.1507-.0527-.2336-.0753-.1356-.0528-.2787-.098-.4219-.1432-.4445-.1356-.9342-.2637-1.4465-.3767-.1959-.0376-.3993-.0753-.6027-.1054-.6554-.113-1.3561-.1809-2.0868-.1884-.0603-.0075-.1281-.0075-.1884-.0075l-1.9362.015-2.6368.0151h-.0075l-5.6428.0452c-1.7931 0-2.893.4294-3.556.6027 0 0-.0075 0-.0075.0076-.70064.1808-.91912.0678-.97939-1.1602-.01507-.3391-.02261-.776-.02261-1.3109l-.42189-.324-.73831-.5575-.45203-.3465-.0904-.0678-1.25061-.9493-.18834-.1431-.39176-.3014-.72324-.5424-.86639-.663v-2.5615c.07534-.0603.14314-.113.21848-.1582 1.0924-.7534 2.26014-1.3937 3.49568-1.9136 1.09993-.4671 2.26011-.8362 3.45051-1.0999.3239-.0678.6554-.1356.9944-.1808 1.002-.1733 2.0341-.2562 3.0813-.2562 4.5278 0 8.6865 1.5746 11.9863 4.1813.4972.3917.9794.8061 1.4314 1.2506.6178.5876 1.1979 1.2129 1.7328 1.8759.1054.1356.2109.2712.3164.4144.1431.1808.2787.3691.4144.5575z" fill="#c2185b"/><path d="m31.6412 21.6374v2.4711c0 .4897-.0452.9718-.1357 1.4389-.1356.6931-.3691 1.3561-.6855 1.9739-.1658.0376-.3541.0376-.5651.0075-.4746-.0829-1.0321-.3315-1.6348-.6554-.0301-.0076-.0603-.0226-.0829-.0377-.1883-.0979-.3842-.2034-.5801-.324-.3993-.2184-.8211-.4595-1.243-.6855-.0904-.0452-.1809-.0904-.2637-.1356-.4822-.2487-.9794-.4747-1.4766-.6479 0 0 0 0-.0076 0-.1055-.0377-.2185-.0754-.3315-.1055-.4294-.1206-.8664-.1959-1.2882-.1959l-.8288-.2411-3.6689-1.0622s0 0-.0075 0l-2.2526-.6555h-.0076l-.9794-.2863c-2.8327 0-4.573 1.2054-5.4168.7459-.33145-.1733-.52733-.6103-.59513-1.4691-.0226-.2411-.03014-.5123-.03014-.8287l-.88145-.4294-.03767-.0151h-.00753l-.63284-.3164-.69311-.3315-.05274-.0226-.12807-.0678-1.47662-.7157-1.13007-.55v-2.5841c.12808-.113.26368-.2185.39929-.3239.14314-.113.28629-.2185.42943-.3315h.00753c.88899-.6404 1.83071-1.2054 2.8327-1.6725 1.16774-.5575 2.41082-.987 3.69912-1.2657.1883-.0452.3842-.0904.5801-.1205 1.0698-.2035 2.1697-.3089 3.2922-.3089 3.9703 0 7.6167 1.2882 10.5549 3.458.8513.6328 1.6423 1.3335 2.3656 2.0944.5951.6253 1.1451 1.3033 1.6423 2.0115.0377.0527.0754.1055.113.1507.2788.4068.5349.8211.776 1.2506.1582.2561.2938.5198.4295.7835z" fill="#d81b60"/><path d="m31.5055 25.5479c-.1356.6931-.3691 1.3561-.6855 1.9739-.1432.2787-.3014.5424-.4747.7986-.1054.1582-.2184.3088-.3314.452-.2713-.1055-.6706-.2562-1.1602-.4219 0 0 0 0 0-.0075-.3692-.1281-.7911-.2637-1.2431-.3918-.1281-.0377-.2562-.0753-.3918-.113-.5349-.1432-1.0924-.2712-1.6348-.3466-.452-.0753-.8965-.1205-1.3109-.1205l-.3465-.0979h-.0076l-1.8232-.5274-1.1225-.324-1.2506-.3616h-.0075l-.4069-.113-4.9195-1.4163-1.4164-.4069-1.0547-.2486-1.7177-.4068-.21094-.0527s0 0-.00754 0l-1.72523-.3993c0-.0076 0-.0076 0-.0076l-.30889-.0678-.15821-.0376-1.25814-.2939-.14314-.0376-1.0698-.8815-.79858-.6705v-3.0738c.27875-.2712.56504-.5273.86639-.7759.0904-.0829.18834-.1583.28628-.2336.09041-.0753.18834-.1507.28628-.226.68558-.5198 1.40882-.9869 2.17727-1.3862.97939-.5274 2.01905-.9493 3.11145-1.2506.2109-.0678.4219-.1281.6404-.1733 1.2355-.3089 2.5313-.4671 3.8723-.4671 3.3676 0 6.5017 1.0171 9.0933 2.7574 1.2883.8663 2.4485 1.906 3.4279 3.0888.4972.5952.9492 1.2205 1.3485 1.8835.0377.0527.0678.0979.098.1506.2411.3993.4671.8137.6705 1.2356.1883.3767.3541.7534.5047 1.1451.2411.6027.437 1.2205.6027 1.8533z" fill="#f50057"/><path d="m30.3453 28.3192c-.1054.1582-.2184.3089-.3314.452-.3315.4144-.6932.791-1.1 1.1225-.3541.2939-.7308.5575-1.13.7835-.1507-.0376-.3014-.0828-.4596-.1431-.4972-.1733-1.0171-.4596-1.4992-.7609-.7233-.4596-1.3486-.9568-1.6273-1.1828-.1055-.0904-.1582-.1356-.1582-.1356l-1.2808-.113-.1582-.0151-1.6574-.1431-1.7177-.1507-2.5389-.226-4.023-.3541-.0151-.0075-1.4164-.6856-1.43139-.6931-1.15267-.5575-.24861-.1206-.30889-.1506-1.06979-.5199-1.42389-.6856-.44449-.2184-.63284-.1959v-3.3676c.35409-.4219.73078-.8212 1.13007-1.2054.25615-.2411.52736-.4822.80611-.7082.04521-.0377.09041-.0753.13561-.1055.03014-.0376.06781-.0602.09794-.0753.44449-.3616.91159-.6856 1.39375-.9794.5575-.3541 1.14514-.6705 1.75537-.9342.65542-.2938 1.34102-.5424 2.04922-.7308 1.228-.3465 2.5313-.5273 3.8723-.5273 3.0738 0 5.9141.9342 8.2571 2.5389 1.4992 1.0246 2.795 2.3204 3.8196 3.8196.339.4822.6404.9944.9191 1.5218.098.1959.1959.3918.2788.5876.0904.1884.1732.3767.2561.5651.1582.3917.3014.7835.4294 1.1903.2411.7534.4219 1.5218.5349 2.3204.0377.2637.0678.5274.0904.7911z" fill="#ff1744"/><path d="m28.9215 29.6983c0 .0603 0 .1281-.0076.1959-.3541.2938-.7308.5575-1.13.7835-.1658.0904-.3315.1809-.5048.2562-.1733.0829-.3466.1582-.5274.226-.2561-.1356-.6027-.3013-.9718-.4596-.5199-.2335-1.0849-.4444-1.5219-.5123-.1054-.0226-.2034-.0301-.2938-.0301l-1.2355-.1582h-.0151l-1.5369-.2034-1.5519-.2034-.7233-.0904-5.6955-.7383c-.3692 0-.7609-.0226-1.1678-.0754-.4972-.0452-1.017-.1205-1.5368-.226-.51234-.0904-1.03217-.2109-1.5294-.339-.51983-.1205-1.03213-.2637-1.50676-.3993-.54997-.1657-1.06226-.324-1.49169-.4671-.35409-.113-.65544-.2185-.88898-.3013-.13561-.324-.24862-.663-.33149-1.0096-.15821-.5876-.23355-1.2054-.23355-1.8382v-1.2582c.24108-.3992.50476-.791.79858-1.1602.5349-.7081 1.14514-1.356 1.80811-1.9286.0226-.0301.05274-.0527.07534-.0678l.00753-.0075c.23355-.211.47463-.3993.73078-.5801.03013-.0302.06027-.0528.0904-.0754.12055-.0904.24862-.1808.38423-.2637 1.07733-.7307 2.2677-1.3033 3.5409-1.6875 1.2054-.3617 2.4786-.55 3.8045-.55 2.6293 0 5.0853.776 7.1345 2.1019 1.5143.9719 2.8177 2.2526 3.8121 3.7518.1206.1733.2336.3466.3466.5274.5198.8815.9492 1.8307 1.2657 2.8252.0376.113.0678.226.0979.3465.0603.2034.113.4144.1582.6253.0151.0528.0301.1055.0452.1658.1055.4746.1808.9718.2336 1.4691v.0075c.0452.4445.0678.8965.0678 1.3485z" fill="#ff5722"/><path d="m27.3703 29.6991c0 .2637-.015.55-.0452.8363-.015.1356-.0301.2712-.0452.3993-.1733.0828-.3465.1582-.5273.226-.3391.1281-.6856.2335-1.0397.3089-.2411.0527-.4897.0979-.7383.1205h-.0076c-.2335-.1431-.5047-.3164-.7835-.5123-.5047-.3541-1.0321-.7534-1.454-1.0773-.0075-.0076-.0075-.0076-.0151-.0151-.4444-.339-.7609-.5952-.7609-.5952l-.7985.0302-1.5369.0527-.7157.0301-2.878.1055-2.4334.0904c-.1582.0076-.3465.0076-.5801 0h-.0075c-.3164-.0075-.6931-.0301-1.1075-.0678-.4821-.0376-1.0095-.0828-1.5444-.1356-.51982-.0603-1.04719-.1205-1.55195-.1808-.5575-.0603-1.08487-.1281-1.53689-.1883-.35409-.0452-.66298-.0829-.91159-.113-.21095-.2411-.39929-.4897-.5801-.761-.27122-.4068-.50477-.8362-.68558-1.2958-.13561-.3239-.24861-.6629-.33148-1.0095.21848-.6705.50476-1.3033.84378-1.9136.27122-.4972.58764-.9718.93419-1.4239.33902-.4445.70818-.8588 1.10747-1.2355v-.0075c.113-.113.22601-.2185.33902-.3165.21094-.1958.42942-.3766.65544-.5499h.00753c.00753-.0151.01507-.0151.0226-.0226.18081-.1432.36916-.2712.5575-.3993 1.11496-.7609 2.37316-1.326 3.72926-1.6574.8965-.2185 1.8382-.3391 2.8101-.3391 1.9135 0 3.7217.4596 5.3113 1.2883h.0075c1.3636.7006 2.569 1.665 3.5409 2.8252.5349.6177.9945 1.2958 1.3711 2.0115.2637.4822.4897.9869.6781 1.4992.0151.0452.0301.0829.0452.1206.1281.3766.2411.7684.339 1.1602.0678.2787.1205.565.1658.8513.015.0904.0301.1733.0376.2637.0754.5198.113 1.0547.113 1.5971z" fill="#ff6f00"/><path d="m25.8264 29.6979v.0754c0 .2561-.0226.5801-.0452.9266-.0226.2562-.0452.5199-.0678.7685-.2411.0527-.4897.0979-.7383.1205h-.0075c-.2863.0377-.5651.0528-.8589.0528h-1.3184l-.2863-.0829-1.4841-.452-1.5068-.4521-3.4881-1.0472-1.5068-.452s-.6253.2486-1.5067.5424h-.0076c-.339.1131-.7082.2336-1.0999.3541-.4897.1432-1.0095.2863-1.5218.3993-.52741.1206-1.04724.211-1.51433.2486-.14314.0151-.28628.0226-.41436.0226-.42189-.2335-.82871-.5123-1.19787-.8211-.32395-.2713-.6253-.5651-.90405-.889-.21095-.2411-.39929-.4897-.58011-.7609.05274-.3391.11301-.6705.20342-.9945.22601-.8965.5801-1.7554 1.04719-2.5389.25615-.4445.54243-.8739.87392-1.2732.00753-.0226.03014-.0452.05274-.0603-.00754-.0075 0-.0075 0-.0075.09794-.1281.20341-.2486.30888-.3616 0-.0076 0-.0076 0-.0076.30889-.3314.62531-.6479.97186-.9417.12054-.0979.23355-.1959.36162-.2938.0226-.0226.04521-.0377.07534-.0603 1.69515-1.2958 3.81205-2.0793 6.09485-2.0793 2.5916 0 4.9497.9719 6.7352 2.569.8588.776 1.5896 1.7027 2.1396 2.7348.0452.0753.0904.1582.1281.2411.0678.1356.1356.2787.1958.4294.2486.5424.4445 1.115.5801 1.7026.0151.0603.0302.1206.0452.1809.0603.2787.113.565.1507.8513.0603.4445.0904.8965.0904 1.356z" fill="#ff9800"/><path d="m24.2741 29.6984c0 .1507-.0075.3165-.015.4897-.0151.2788-.0377.5801-.0754.889-.0151.1884-.0452.3767-.0753.5651h-4.1285l-.7986-.1281-3.119-.4972-.4445-.0678-1.0171-.1658c-.4445 0-1.4088.1959-2.4258.3842-.5349.098-1.0774.2034-1.5671.2712-.0602.0076-.1205.0151-.1732.0226h-.0076c-.52734-.113-1.03964-.2862-1.5218-.5122-.15068-.0679-.30135-.1432-.45203-.2261-.42189-.2335-.82871-.5123-1.19787-.8211-.00753-.0905-.01507-.1658-.01507-.2035 0-.1958.00754-.3842.02261-.5725.03013-.4822.09794-.9493.20341-1.4013.16574-.6856.40682-1.3486.73078-1.9588.06027-.1281.12807-.2561.20341-.3767.03013-.0603.0678-.113.09794-.1733.1356-.2184.28628-.4294.43696-.6403.31641-.4144.6705-.8061 1.04719-1.1602h.00754c.03013-.0302.06023-.0603.09043-.0829.0376-.0301.0678-.0678.1054-.0904.1507-.1356.3014-.2562.4596-.3692 0-.0075.0075-.0075.0075-.0075 1.4239-1.0623 3.1868-1.6876 5.1079-1.6876 1.4917 0 2.878.3767 4.0909 1.0397h.0075c1.0397.5726 1.9437 1.3485 2.6594 2.2827.2788.3617.5274.7459.7384 1.1527h.0075c.0377.0753.0753.1507.113.226.226.4445.4068.9116.5424 1.3938h.0076c.0075.0376.0226.0753.0301.113.0904.3239.1657.6554.2185.9944.0075.0678.015.1432.0226.211.0527.3616.0753.7308.0753 1.1074z" fill="#ffc107"/><path d="m22.7285 29.6144c0 .1205 0 .2486-.0151.3691v.0076.0075c-.015.5424-.0904 1.0773-.2109 1.5595 0 .0301-.0075.0527-.0226.0829h-3.5183l-2.9005-.6253-.3842-.0829-.0603.0151-3.2169.6629-.1431.0302h-.2035c-.4821 0-.9567-.0452-1.4163-.1356-.0678-.0151-.1356-.0302-.2034-.0452h-.0076c-.52732-.113-1.03962-.2863-1.52178-.5123-.01507-.0829-.03013-.1658-.03767-.2486-.05273-.324-.07533-.663-.07533-1.002 0-.1281 0-.2562.00753-.3843.0226-.4068.08287-.8061.17328-1.1903.06027-.2863.14314-.565.24108-.8287.08287-.2336.18081-.4596.28628-.6781.09041-.1883.19588-.3691.30135-.5499.10548-.1733.21846-.339.33906-.5048.3013-.4143.6554-.7986 1.0472-1.1376.226-.1959.4746-.3842.7307-.5499 1.1-.7233 2.4184-1.1452 3.8423-1.1452.2787 0 .5499.0151.8136.0528h.0151c.8061.0904 1.5595.3164 2.2526.6554h.0075c1.0924.5349 2.0191 1.341 2.6971 2.3355.113.1657.226.3465.324.5273.0828.1432.1582.2938.226.4445.1055.2336.2034.4822.2863.7308h.0075c.0829.2788.1582.5575.2109.8513v.0076c.0829.4143.1281.8437.1281 1.2807z" fill="#ffd54f"/><path d="m21.1771 29.7739v.0226c0 .4445-.0528.8815-.1583 1.3109-.0376.1808-.0904.3616-.1582.5349h-3.3751l-1.7252-.4746-1.7253.4746h-1.9814c-.4821 0-.9568-.0452-1.4163-.1356-.0151-.0226-.0226-.0452-.0301-.0678-.1055-.324-.1884-.6479-.2261-.9869-.0301-.2185-.0452-.4445-.0452-.6781 0-.0904 0-.1883.0151-.2787.0075-.3541.0603-.7007.1507-1.0321.0452-.2261.113-.4445.2034-.6555.0301-.1055.0753-.2034.1281-.3013.113-.2562.2486-.5048.3993-.7459.1657-.2411.3465-.4671.5499-.678.2411-.2712.5123-.5199.8212-.7233.5274-.3842 1.1301-.6705 1.7855-.8287.437-.1205.8965-.1808 1.3712-.1808 1.5067 0 2.8553.6027 3.8347 1.5746.0376.0376.0828.0828.1205.1356h.0075c.1055.113.2034.226.3014.3541.2787.3541.5123.7383.6931 1.1602.0904.1958.1657.3993.226.6102.0075.0301.0151.0527.0226.0829.1055.3691.1733.7534.1884 1.1526.015.1131.0226.2336.0226.3541z" fill="#ffe082"/><path d="m19.6334 29.7728c0 .3088-.0377.6027-.1205.8814-.0754.3014-.1884.5876-.3315.8589-.0226.0452-.0754.128-.0754.128h-6.69c-.0075-.0075-.015-.0226-.015-.0301-.0904-.1431-.1658-.2863-.226-.4445-.1507-.3465-.2411-.7232-.2713-1.115-.015-.0904-.015-.1883-.015-.2787 0-.0452 0-.098.0075-.1432.0075-.3315.0527-.6479.1431-.9417.0754-.2712.1733-.5198.3014-.7609 0 0 .0075-.0076.0075-.0151.0904-.1582.1884-.3164.3014-.4671.3691-.4972.8588-.904 1.4239-1.1677h.0075c.1808-.0904.3692-.1658.565-.2185h.0076c.3465-.1055.7232-.1582 1.1074-.1582.4445 0 .874.0678 1.2657.2109.1432.0377.2788.098.4144.1658h.0075c.6479.3089 1.1979.791 1.5746 1.3937.0753.113.1431.2336.2034.3616.0301.0528.0602.1131.0828.1658.1733.3918.2788.8212.3089 1.2732.0076.0377.0076.0753.0076.1205.0075.0603.0075.1206.0075.1809z" fill="#ffecb3"/><path d="m22.6013 8.28711h-9.0405c-2.9382 0-5.27369 2.33549-5.27369 5.27369v9.0405c0 2.9382 2.33549 5.2736 5.27369 5.2736h9.0405c2.9382 0 5.2736-2.3354 5.2736-5.2736v-9.0405c0-2.9382-2.3354-5.27369-5.2736-5.27369z" stroke="#fff" stroke-linecap="round" stroke-linejoin="round" stroke-miterlimit="10" stroke-width="2"/><path d="m23.3549 12.8075c.4161 0 .7534-.3373.7534-.7533 0-.4161-.3373-.7534-.7534-.7534-.416 0-.7533.3373-.7533.7534 0 .416.3373.7533.7533.7533z" fill="#fff"/><path d="m18.0808 22.6011c2.4965 0 4.5203-2.0238 4.5203-4.5203s-2.0238-4.5203-4.5203-4.5203-4.5203 2.0238-4.5203 4.5203 2.0238 4.5203 4.5203 4.5203z" stroke="#fff" stroke-linecap="round" stroke-linejoin="round" stroke-miterlimit="10" stroke-width="2"/></svg>