<svg fill="none" height="37" viewBox="0 0 37 37" width="37" xmlns="http://www.w3.org/2000/svg"><path d="m32.2896 27.8743c0 2.0808-1.6861 3.7669-3.7669 3.7669h-19.58784c-2.08008 0-3.76689-1.6861-3.76689-3.7669v-19.58788c0-2.08083 1.68681-3.76689 3.76689-3.76689h19.58784c2.0808 0 3.7669 1.68606 3.7669 3.76689z" fill="#0288d1"/><path d="m9.68945 14.3147h3.76685v12.8074h-3.76685zm1.87215-1.5068h-.0211c-1.124 0-1.85105-.8377-1.85105-1.8842 0-1.06904.74965-1.88268 1.89395-1.88268 1.1459 0 1.8519.81364 1.8729 1.88268 0 1.0457-.727 1.8842-1.8947 1.8842zm16.2089 14.3142h-3.7669v-6.855c0-1.6559-.9228-2.786-2.4047-2.786-1.1309 0-1.7426.7624-2.0394 1.4992-.1085.2637-.0761.993-.0761 1.3614v6.7804h-3.7669v-12.8074h3.7669v1.9708c.5432-.8408 1.3937-1.9708 3.5695-1.9708 2.6956 0 4.7169 1.6951 4.7169 5.48z" fill="#fff"/></svg>