<svg fill="none" height="18" viewBox="0 0 16 18" width="16" xmlns="http://www.w3.org/2000/svg"><path d="m8 9.11315c.55 0 1.02083-.17323 1.4125-.51968s.5875-.76293.5875-1.24943c0-.48651-.19583-.90299-.5875-1.24944s-.8625-.51968-1.4125-.51968-1.02083.17323-1.4125.51968-.5875.76293-.5875 1.24944c0 .4865.19583.90298.5875 1.24943s.8625.51968 1.4125.51968zm0 8.84555c-2.68333-2.0197-4.6875-3.8957-6.0125-5.628-1.325-1.7322-1.9875-3.33549-1.9875-4.80975 0-2.2114.804167-3.97314 2.4125-5.28523 1.60833-1.312095 3.47083-1.968142 5.5875-1.968142 2.1167 0 3.9792.656047 5.5875 1.968142 1.6083 1.31209 2.4125 3.07383 2.4125 5.28523 0 1.47426-.6625 3.07755-1.9875 4.80975-1.325 1.7323-3.3292 3.6083-6.0125 5.628z" fill="#fff"/></svg>