<?xml version="1.0" encoding="UTF-8"?>
<svg id="Layer_1" data-name="Layer 1" xmlns="http://www.w3.org/2000/svg" viewBox="0 0 724.16 410.84">
  <defs>
    <style>
      .cls-1 {
        fill: #1a1c20;
        stroke-width: 0px;
      }
    </style>
  </defs>
  <path class="cls-1" d="M119.05,267.75c-39.45,0-71.55,32.09-71.55,71.55s32.1,71.54,71.55,71.54,71.54-32.09,71.54-71.54-32.09-71.55-71.54-71.55ZM119.05,381.01c-23,0-41.71-18.71-41.71-41.71s18.71-41.71,41.71-41.71,41.71,18.71,41.71,41.71-18.71,41.71-41.71,41.71Z"/>
  <circle class="cls-1" cx="119.05" cy="339.3" r="22.71" transform="translate(-239.98 319.44) rotate(-67.5)"/>
  <path class="cls-1" d="M443.3,267.75c-39.45,0-71.55,32.09-71.55,71.55s32.1,71.54,71.55,71.54,71.54-32.09,71.54-71.54-32.09-71.55-71.54-71.55ZM443.3,381.01c-23,0-41.71-18.71-41.71-41.71s18.71-41.71,41.71-41.71,41.71,18.71,41.71,41.71-18.71,41.71-41.71,41.71Z"/>
  <circle class="cls-1" cx="443.3" cy="339.3" r="22.71"/>
  <path class="cls-1" d="M405.63,95.08c1.96,1.74,4.37,2.59,6.77,2.59,2.88,0,5.75-1.23,7.79-3.63l16.69-19.62,76.19,69.49v-28.29l-62.63-57.13,17.5-20.56c3.74-4.4,3.29-11.06-1.01-14.89-4.3-3.82-10.82-3.36-14.57,1.04l-47.75,56.11c-3.74,4.4-3.29,11.06,1.01,14.89Z"/>
  <polygon class="cls-1" points="213.49 170.02 338.08 170.02 338.08 131.92 213.31 131.92 213.49 170.02"/>
  <path class="cls-1" d="M255.08,140.92V0h-42.05v30.38c0,.65-.08,1.28-.23,1.89h0s.69,108.65.69,108.65h41.59Z"/>
  <rect class="cls-1" x="577.08" y="306.59" width="112" height="45.42"/>
  <path class="cls-1" d="M652.27,180.02H209.99c-5.23,0-9.47-4.23-9.5-9.46l-.22-47.51v-2.04s-.01,0-.01-.02l-.43-94.3H0v303.11h29c4.76-45.48,43.33-81.05,90.05-81.05s85.28,35.57,90.04,81.05h144.16c4.76-45.48,43.33-81.05,90.05-81.05s85.28,35.57,90.04,81.05h33.84v-18.61c0-7.5,6.1-13.6,13.6-13.6h104.35c7.5,0,13.6,6.1,13.6,13.6v18.61h25.43v-77.89c0-39.64-32.25-71.89-71.89-71.89Z"/>
  <rect class="cls-1" x="509.62" y="75.57" width="31.58" height="106.45"/>
</svg>