<svg fill="none" height="38" viewBox="0 0 53 38" width="53" xmlns="http://www.w3.org/2000/svg"><path d="m0 38v-6.65c0-1.3458.346354-2.5828 1.03906-3.7109.69271-1.1282 1.61302-1.9891 2.76094-2.5829 2.45417-1.227 4.94792-2.1473 7.4812-2.7609 2.5334-.6135 5.1063-.9203 7.7188-.9203s5.1854.3068 7.7188.9203c2.5333.6136 5.027 1.5339 7.4812 2.7609 1.1479.5938 2.0682 1.4547 2.7609 2.5829.6927 1.1281 1.0391 2.3651 1.0391 3.7109v6.65zm42.75 0v-7.125c0-1.7417-.4849-3.4141-1.4547-5.0172s-2.3453-2.9786-4.1265-4.1266c2.0187.2375 3.9187.6433 5.6999 1.2172 1.7813.574 3.4438 1.2766 4.9876 2.1078 1.4249.7917 2.5135 1.6724 3.2656 2.6422s1.1281 2.0287 1.1281 3.1766v7.125zm-23.75-19c-2.6125 0-4.849-.9302-6.7094-2.7906s-2.7906-4.0969-2.7906-6.7094.9302-4.84896 2.7906-6.70938c1.8604-1.860412 4.0969-2.79062 6.7094-2.79062s4.849.930208 6.7094 2.79062c1.8604 1.86042 2.7906 4.09688 2.7906 6.70938s-.9302 4.849-2.7906 6.7094-4.0969 2.7906-6.7094 2.7906zm23.75-9.5c0 2.6125-.9302 4.849-2.7906 6.7094s-4.0969 2.7906-6.7094 2.7906c-.4354 0-.9896-.0495-1.6625-.1484-.6729-.099-1.2271-.2079-1.6625-.3266 1.0687-1.2667 1.8901-2.6719 2.4641-4.2156.5739-1.5438.8609-3.1469.8609-4.8094s-.287-3.26563-.8609-4.80938c-.574-1.54375-1.3954-2.94895-2.4641-4.21562.5542-.197917 1.1083-.326563 1.6625-.3859375.5542-.059375 1.1083-.0890625 1.6625-.0890625 2.6125 0 4.849.930208 6.7094 2.79062 1.8604 1.86042 2.7906 4.09688 2.7906 6.70938zm-38 23.75h28.5v-1.9c0-.4354-.1089-.8313-.3266-1.1875-.2177-.3563-.5046-.6333-.8609-.8313-2.1375-1.0687-4.2948-1.8703-6.4719-2.4046-2.1771-.5344-4.3739-.8016-6.5906-.8016s-4.4135.2672-6.5906.8016c-2.1771.5343-4.3344 1.3359-6.4719 2.4046-.35625.198-.64323.475-.86094.8313-.21771.3562-.32656.7521-.32656 1.1875zm14.25-19c1.3062 0 2.4245-.4651 3.3547-1.3953s1.3953-2.0485 1.3953-3.3547c0-1.30625-.4651-2.42448-1.3953-3.35469s-2.0485-1.39531-3.3547-1.39531-2.4245.4651-3.3547 1.39531-1.3953 2.04844-1.3953 3.35469c0 1.3062.4651 2.4245 1.3953 3.3547s2.0485 1.3953 3.3547 1.3953z" fill="#fff"/></svg>