<svg fill="none" height="48" viewBox="0 0 46 48" width="46" xmlns="http://www.w3.org/2000/svg"><path d="m8.3125 21.375 13.0625-21.375 13.0625 21.375zm26.125 26.125c-2.9687 0-5.4922-1.0391-7.5703-3.1172s-3.1172-4.6016-3.1172-7.5703 1.0391-5.4922 3.1172-7.5703 4.6016-3.1172 7.5703-3.1172 5.4922 1.0391 7.5703 3.1172 3.1172 4.6016 3.1172 7.5703-1.0391 5.4922-3.1172 7.5703-4.6016 3.1172-7.5703 3.1172zm-34.4375-1.1875v-19h19v19zm34.4375-3.5625c1.6625 0 3.0677-.574 4.2156-1.7219s1.7219-2.5531 1.7219-4.2156-.574-3.0677-1.7219-4.2156-2.5531-1.7219-4.2156-1.7219-3.0677.574-4.2156 1.7219-1.7219 2.5531-1.7219 4.2156.574 3.0677 1.7219 4.2156 2.5531 1.7219 4.2156 1.7219zm-29.6875-1.1875h9.5v-9.5h-9.5zm11.9937-24.9375h9.2626l-4.6313-7.48125z" fill="#fff"/></svg>