<svg fill="none" height="41" viewBox="0 0 48 41" width="48" xmlns="http://www.w3.org/2000/svg"><path d="m19 19c-2.6125 0-4.849-.9302-6.7094-2.7906s-2.7906-4.0969-2.7906-6.7094.9302-4.84896 2.7906-6.70937c1.8604-1.860422 4.0969-2.79063 6.7094-2.79063s4.849.930208 6.7094 2.79063c1.8604 1.86041 2.7906 4.09687 2.7906 6.70937s-.9302 4.849-2.7906 6.7094-4.0969 2.7906-6.7094 2.7906zm-19 19v-6.65c0-1.3062.336458-2.5333 1.00937-3.6812.67292-1.148 1.60313-2.0188 2.79063-2.6125 2.01875-1.0292 4.29479-1.9 6.8281-2.6125 2.5334-.7125 5.324-1.0688 8.3719-1.0688h.8312c.2376 0 .475.0396.7125.1188-.3166.7125-.5838 1.4546-.8015 2.2265s-.386 1.5735-.5047 2.4047h-.2375c-2.8104 0-5.3339.3563-7.5703 1.0688-2.23647.7125-4.0672 1.425-5.4922 2.1375-.35625.1979-.64323.475-.86094.8312-.21771.3563-.32656.7521-.32656 1.1875v1.9h14.9625c.2375.8313.5542 1.6526.95 2.4641.3958.8114.8312 1.5734 1.3063 2.2859zm33.25 2.375-.7125-3.5625c-.475-.1979-.9203-.4057-1.3359-.6234-.4157-.2177-.8412-.4849-1.2766-.8016l-3.4438 1.0688-2.375-4.0375 2.7313-2.375c-.0792-.5542-.1187-1.0688-.1187-1.5438s.0395-.9896.1187-1.5437l-2.7313-2.375 2.375-4.0375 3.4438 1.0687c.4354-.3167.8609-.5839 1.2766-.8016.4156-.2177.8609-.4255 1.3359-.6234l.7125-3.5625h4.75l.7125 3.5625c.475.1979.9203.4156 1.3359.6531.4157.2375.8412.5344 1.2766.8907l3.4437-1.1875 2.375 4.1562-2.7312 2.375c.0792.475.1187.9698.1187 1.4844s-.0395 1.0094-.1187 1.4844l2.7312 2.375-2.375 4.0375-3.4437-1.0688c-.4354.3167-.8609.5839-1.2766.8016-.4156.2177-.8609.4255-1.3359.6234l-.7125 3.5625zm2.375-7.125c1.3062 0 2.4245-.4651 3.3547-1.3953s1.3953-2.0484 1.3953-3.3547c0-1.3062-.4651-2.4245-1.3953-3.3547s-2.0485-1.3953-3.3547-1.3953c-1.3063 0-2.4245.4651-3.3547 1.3953s-1.3953 2.0485-1.3953 3.3547c0 1.3063.4651 2.4245 1.3953 3.3547s2.0484 1.3953 3.3547 1.3953zm-16.625-19c1.3062 0 2.4245-.4651 3.3547-1.3953s1.3953-2.0484 1.3953-3.3547c0-1.30625-.4651-2.42448-1.3953-3.35469s-2.0485-1.39531-3.3547-1.39531-2.4245.4651-3.3547 1.39531-1.3953 2.04844-1.3953 3.35469c0 1.3063.4651 2.4245 1.3953 3.3547s2.0485 1.3953 3.3547 1.3953z" fill="#fff"/></svg>