<svg enable-background="new 0 0 64 64" viewBox="0 0 64 64" xmlns="http://www.w3.org/2000/svg"><circle cx="32" cy="32" fill="#c75c5c" r="32"/><path d="m16.954 50c-4.4 0-6.2-3.118-4-6.928l15.046-26.06c2.2-3.811 5.8-3.811 8 0l15.046 26.06c2.2 3.811.4 6.928-4 6.928z" fill="#231f20" opacity=".2"/><path d="m16.954 48c-4.4 0-6.2-3.118-4-6.928l15.046-26.06c2.2-3.811 5.8-3.811 8 0l15.046 26.06c2.2 3.811.4 6.928-4 6.928z" fill="#f5cf87"/><g fill="#4f5d73"><path d="m34 32c0 1.105-.895 2-2 2s-2-.895-2-2v-8c0-1.105.895-2 2-2s2 .895 2 2z"/><path d="m34 40c0 1.105-.895 2-2 2s-2-.895-2-2 .895-2 2-2 2 .895 2 2z"/></g></svg>