<svg fill="none" height="37" viewBox="0 0 37 37" width="37" xmlns="http://www.w3.org/2000/svg"><g clip-rule="evenodd" fill-rule="evenodd"><path d="m8.70043 4.51953h19.73177c2.0409 0 3.6953 1.65442 3.6953 3.69457v19.7317c0 2.0409-1.6544 3.6954-3.6946 3.6954h-19.73247c-2.04015 0-3.69457-1.6545-3.69457-3.6946v-19.7325c0-2.04015 1.65442-3.69457 3.69457-3.69457z" fill="#212121"/><path d="m22.4912 15.5258c1.1873.8483 2.6421 1.347 4.2129 1.347v-3.0218c-.2976 0-.5937-.0309-.8845-.0927v2.3785c-1.5708 0-3.0248-.4995-4.2129-1.3471v6.1657c0 3.0843-2.502 5.5848-5.5878 5.5848-1.1512 0-2.2217-.3481-3.1107-.9448 1.0148 1.0367 2.4296 1.6801 3.9952 1.6801 3.0858 0 5.5878-2.5005 5.5878-5.5848zm1.0916-3.0482c-.6064-.6622-1.005-1.5188-1.0916-2.4658v-.38875h-.8385c.2109 1.20315.9311 2.23155 1.9301 2.85455zm-8.7226 10.7515c-.339-.4445-.5221-.9877-.5213-1.5467 0-1.4111 1.1444-2.5547 2.5562-2.5547.2629 0 .5243.0399.7752.1198v-3.0889c-.2931-.0399-.5884-.0573-.8845-.0512v2.404c-.2508-.0799-.5123-.1198-.7759-.1198-1.4119 0-2.5563 1.1436-2.5563 2.5547.0008.9983.5726 1.8624 1.4066 2.2828z" fill="#ec407a"/><path d="m21.606 14.7897c1.1874.8483 2.6421 1.3471 4.2129 1.3471v-2.3785c-.8769-.1868-1.6529-.6449-2.2367-1.2815-.999-.623-1.7185-1.6506-1.9294-2.85375h-2.2022v12.06765c-.0052 1.4065-1.1474 2.5456-2.5562 2.5456-.8302 0-1.5678-.3955-2.0349-1.008-.8339-.4204-1.4058-1.2845-1.4058-2.282 0-1.4111 1.1444-2.5547 2.5563-2.5547.2704 0 .5311.0422.7759.1198v-2.4033c-3.0316.0626-5.4695 2.5382-5.4695 5.5833 0 1.5203.6072 2.8983 1.5926 3.9048.889.5967 1.9596.9447 3.1107.9447 3.0859 0 5.5879-2.5005 5.5879-5.5848z" fill="#fff"/><path d="m25.8201 13.7588v-.6434c-.791.0015-1.5655-.22-2.2367-.6388.5936.6501 1.3756 1.0984 2.2367 1.2822zm-4.1669-4.13603c-.0203-.11527-.0354-.23053-.0459-.34731v-.38874h-3.0407v12.06838c-.0045 1.4065-1.1474 2.5457-2.5562 2.5457-.4136 0-.8038-.098-1.1496-.2728.467.6125 1.2046 1.008 2.0348 1.008 1.4088 0 2.551-1.1391 2.5562-2.5456v-12.06763zm-4.8668 6.48513v-.6849c-.2539-.0346-.51-.052-.767-.052-3.0865 0-5.5878 2.5005-5.5878 5.5848 0 1.934.9832 3.6381 2.4771 4.6401-.9854-1.0065-1.5926-2.3844-1.5926-3.9048 0-3.0451 2.4387-5.5207 5.4703-5.5832z" fill="#81d4fa"/></g></svg>