<?xml version="1.0" encoding="UTF-8"?>
<svg xmlns="http://www.w3.org/2000/svg" viewBox="0 0 1614 1267.7">
  <defs>
    <style>
      .cls-1, .cls-2 {
        stroke-width: 0px;
      }

      .cls-2 {
        fill: #fff;
      }
    </style>
  </defs>
  <g id="_1" data-name="1">
    <circle class="cls-1" cx="1263.17" cy="916.24" r="109.19" transform="translate(-277.9 1161.56) rotate(-45)"/>
    <path class="cls-1" d="M1592.81,869.56l-19.46-11.27c-4.06-21.81-10.36-42.85-18.64-62.85,8.24-.39,15.37-6.42,16.9-14.87,1.73-9.81-4.83-19.19-14.64-20.94l-22.16-3.92c-11.19-18.93-24.29-36.57-39.07-52.68,7.64-3.17,12.33-11.27,10.84-19.78-1.54-8.75-9.16-14.95-17.77-14.95-1.04,0-2.09.12-3.13.3l-22.18,3.86c-16.86-13.85-35.17-25.97-54.67-36.17,6.05-5.58,7.66-14.8,3.39-22.24-5-8.65-16.02-11.62-24.67-6.62l-19.41,11.17c-20.43-7.19-41.75-12.35-63.83-15.23,3.78-7.31,2.15-16.53-4.43-22.07-7.64-6.42-19.01-5.44-25.45,2.19l-14.52,17.26c-22.32.2-44.09,2.76-65.11,7.39,1.06-8.16-3.64-16.27-11.7-19.21-9.36-3.41-19.74,1.4-23.13,10.76l-7.72,21.08c-20.69,7.76-40.35,17.61-58.69,29.35-1.81-8.04-8.98-14.05-17.57-14.07-5,0-9.5,2.01-12.79,5.28-3.27,3.27-5.28,7.76-5.28,12.75l-.02,22.54c-16.63,14.26-31.72,30.2-45.1,47.58-4.45-6.97-13.24-10.19-21.34-7.25-9.38,3.41-14.22,13.77-10.8,23.13l7.66,21.14c-10.68,18.93-19.52,39.03-26.16,60.13-6.56-4.95-15.9-4.95-22.46.55-4.24,3.57-6.46,8.71-6.46,13.87,0,4.06,1.36,8.18,4.18,11.58l14.46,17.22c-2.76,16.81-4.22,34.06-4.22,51.64,0,4.63.12,9.24.3,13.83-7.88-2.46-16.71.71-21.02,8.16-5.02,8.65-2.05,19.7,6.58,24.67l19.46,11.27c4.02,21.83,10.32,42.87,18.64,62.85-8.24.43-15.37,6.44-16.9,14.87-1.75,9.85,4.81,19.19,14.64,20.94l22.14,3.94c11.21,18.91,24.31,36.57,39.07,52.66-7.62,3.17-12.31,11.31-10.82,19.78,1.71,9.85,11.07,16.39,20.88,14.66l22.18-3.88c16.86,13.87,35.15,26.01,54.67,36.17-6.05,5.6-7.66,14.8-3.37,22.26,3.35,5.81,9.42,9.06,15.66,9.06,3.07,0,6.15-.79,9.02-2.42l19.41-11.21c20.39,7.19,41.75,12.35,63.83,15.25-3.78,7.33-2.15,16.55,4.41,22.07,7.66,6.42,19.03,5.44,25.45-2.19l14.52-17.28c22.34-.2,44.11-2.74,65.11-7.39-1.06,8.18,3.66,16.29,11.7,19.23,2.03.75,4.12,1.1,6.17,1.1,7.39,0,14.32-4.53,16.98-11.86l7.72-21.08c20.65-7.76,40.31-17.63,58.67-29.37,1.81,8.06,8.98,14.09,17.59,14.09h.04c9.93,0,18.01-8.08,18.03-18.03l.02-22.54c16.63-14.24,31.72-30.2,45.1-47.58,4.43,6.99,13.24,10.17,21.32,7.25,9.38-3.41,14.24-13.75,10.82-23.13l-7.66-21.12c10.68-18.93,19.5-39.07,26.14-60.15,6.58,4.98,15.9,4.96,22.48-.55,7.64-6.4,8.65-17.79,2.25-25.43l-14.46-17.26c2.78-16.79,4.24-34.06,4.24-51.64,0-4.63-.12-9.22-.3-13.81,7.86,2.48,16.69-.73,21.02-8.18,5.02-8.63,2.05-19.68-6.58-24.67ZM1263.17,1074.64c-87.48,0-158.4-70.92-158.4-158.4s70.92-158.4,158.4-158.4,158.4,70.92,158.4,158.4-70.92,158.4-158.4,158.4Z"/>
    <circle class="cls-1" cx="317.33" cy="1024.72" r="74.26" transform="translate(-631.64 524.52) rotate(-45)"/>
    <path class="cls-1" d="M541.54,992.97l-9.57-5.54c-2.28-1.32-3.92-3.55-4.45-6.13-2.14-10.39-5.03-20.51-8.6-30.29-1.44-3.95-.03-8.32,3.36-10.8,2.46-1.8,4.25-4.52,4.84-7.75,1.17-6.67-3.29-13.05-9.96-14.24l-10.9-1.93c-2.6-.46-4.9-1.99-6.28-4.24-5.53-8.96-11.7-17.48-18.46-25.5-2.72-3.23-2.87-7.83-.52-11.33,1.7-2.53,2.46-5.7,1.89-8.95-1.05-5.95-6.23-10.17-12.09-10.17-.7,0-1.42.08-2.13.21l-10.92,1.9c-2.6.45-5.27-.2-7.34-1.84-8.23-6.5-16.94-12.41-26.07-17.68-3.67-2.12-5.31-6.41-4.33-10.54.7-2.93.32-6.13-1.3-8.95-3.4-5.88-10.9-7.9-16.78-4.5l-9.54,5.49c-2.29,1.31-5.02,1.62-7.53.79-9.91-3.28-20.11-5.85-30.58-7.68-4.19-.73-7.19-4.21-7.69-8.43-.35-2.99-1.8-5.85-4.29-7.95-5.19-4.36-12.93-3.7-17.31,1.49l-7.15,8.5c-1.7,2.02-4.18,3.24-6.81,3.32-10.64.3-21.09,1.38-31.3,3.19-4.18.74-8.19-1.5-10.1-5.29-1.35-2.69-3.7-4.9-6.75-6.01-6.37-2.32-13.43.95-15.73,7.32l-3.79,10.37c-.91,2.48-2.81,4.47-5.26,5.44-11.58,4.59-22.65,10.16-33.12,16.61-1.22.75-24.88,17.51-27.01,19.67-.16.16-.32.31-.5.46-8.91,7.66-17.17,16.04-24.72,25.05-2.71,3.23-7.21,4.18-11.06,2.47-2.79-1.24-6.04-1.44-9.14-.31-6.38,2.32-9.67,9.36-7.35,15.73l3.77,10.4c.9,2.48.72,5.24-.54,7.56-4.97,9.2-9.3,18.8-12.91,28.75-1.45,3.99-5.39,6.34-9.62,6.1-3-.17-6.07.75-8.55,2.84-2.89,2.43-4.39,5.93-4.39,9.43,0,2.76.93,5.57,2.85,7.87l7.11,8.47c1.69,2.02,2.48,4.66,2.1,7.27-1.47,10.16-2.25,20.53-2.25,31.1,0,.08,0,.17,0,.25,0,4.28-2.89,7.89-7,9.12-2.89.86-5.47,2.78-7.09,5.59-3.41,5.88-1.4,13.4,4.48,16.78l9.56,5.54c2.29,1.32,3.92,3.55,4.45,6.14,2.12,10.4,5.01,20.51,8.6,30.3,1.45,3.95.03,8.32-3.36,10.82-2.45,1.8-4.24,4.51-4.83,7.73-1.19,6.7,3.27,13.05,9.96,14.24l10.9,1.94c2.59.46,4.88,1.99,6.27,4.23,5.54,8.96,11.72,17.49,18.47,25.51,2.71,3.22,2.87,7.82.53,11.32-1.7,2.54-2.46,5.71-1.9,8.96,1.16,6.7,7.53,11.15,14.2,9.97l10.91-1.91c2.6-.45,5.28.2,7.35,1.84,8.22,6.51,16.92,12.42,26.06,17.68,3.68,2.12,5.32,6.41,4.34,10.54-.69,2.93-.31,6.13,1.31,8.95,2.28,3.95,6.41,6.16,10.65,6.16,2.09,0,4.19-.54,6.13-1.64l9.54-5.51c2.29-1.32,5.03-1.62,7.54-.79,9.89,3.27,20.1,5.85,30.57,7.68,4.19.73,7.2,4.21,7.69,8.43.35,2.99,1.79,5.86,4.28,7.95,5.21,4.36,12.94,3.7,17.31-1.49l7.15-8.51c1.7-2.02,4.18-3.25,6.82-3.32,10.65-.3,21.09-1.38,31.3-3.18,4.18-.74,8.2,1.49,10.1,5.29,1.35,2.7,3.7,4.91,6.75,6.02,1.38.51,2.8.75,4.2.75,5.03,0,9.74-3.08,11.55-8.07l3.8-10.37c.91-2.47,2.81-4.47,5.26-5.44,9.82-3.9,19.29-8.51,28.34-13.77,3.65-2.12,8.21-1.47,11.25,1.45,2.2,2.11,5.18,3.41,8.47,3.41h.03c6.75,0,12.25-5.5,12.27-12.27v-11.1c.01-2.64,1.12-5.17,3.09-6.92,7.84-6.98,15.16-14.53,21.9-22.59,2.71-3.23,7.21-4.18,11.06-2.47,2.79,1.24,6.04,1.43,9.14.31,6.38-2.32,9.68-9.35,7.36-15.73l-3.76-10.39c-.9-2.48-.72-5.24.53-7.56,4.97-9.2,9.29-18.81,12.9-28.76,1.45-3.99,5.39-6.35,9.62-6.1,3.01.17,6.08-.76,8.57-2.84,5.19-4.35,5.88-12.1,1.53-17.29l-7.12-8.5c-1.69-2.02-2.47-4.66-2.09-7.27,1.48-10.15,2.26-20.54,2.26-31.1,0-.08,0-.16,0-.24,0-4.28,2.88-7.88,6.98-9.11,2.89-.87,5.47-2.79,7.11-5.61,3.41-5.87,1.4-13.38-4.48-16.78ZM317.33,1132.46c-59.5,0-107.74-48.24-107.74-107.74s48.24-107.74,107.74-107.74,107.74,48.24,107.74,107.74-48.24,107.74-107.74,107.74Z"/>
    <path class="cls-1" d="M373.43,64.23l29.86,11.9c15.19,6.05,25.15,20.75,25.15,37.1v383.03h63.44V97.2c0-26.37-13.09-51.01-34.93-65.78L412.57,1.4c-3.82-2.58-9.01-1.5-11.48,2.4l-31.25,49.39c-2.52,3.99-.8,9.29,3.58,11.04Z"/>
    <path class="cls-1" d="M1613.41,741.85c-14.4-34.9-41.88-87.89-93.31-137.2-21.78-20.88-43.67-37.09-63.62-49.64-21.09-13.26-35.44-34.97-39.03-59.62-20.42-140.21-40.83-280.41-61.23-420.62-2.45-16.75-16.8-29.17-33.73-29.17h-435.38c-13.77,0-26.18,8.3-31.47,21.02-49.28,118.64-98.56,237.29-147.84,355.93-5.14,12.36-17.25,20.33-30.64,20.27-188.49-.79-403.55,43.61-526.62,72.6-60.67,14.29-106.41,64.21-115.38,125.89L.98,876.52c-4.16,28.62,5.02,57.58,24.93,78.57.17.18.34.36.51.54,7.94,8.37,21.98,4.93,25.11-6.18,32.76-115.93,139.36-200.91,265.8-200.91,133.74,0,245.28,95.06,270.73,221.31,2.78,13.78,14.99,23.62,29.04,23.62h251.68c13.82,0,24.37-12.22,22.5-25.91-2.31-16.92-3.5-34.2-3.48-51.75.23-208.03,174.24-378.61,382.24-374.88,144.1,2.58,268.37,86.37,329.01,207.52,2.16,4.31,7.67,5.65,11.58,2.82l.13-.09c2.92-2.12,4.03-5.97,2.66-9.31ZM1147.96,428.87c.41,7.57-5.62,13.94-13.21,13.94h-339.23c-15.56,0-26.21-15.69-20.48-30.15l122.37-308.64c1.97-4.97,6.77-8.23,12.12-8.23h210.94c7.08,0,12.91,5.57,13.23,12.65l14.26,320.42ZM1292.45,95.8c6.68,0,12.31,4.97,13.14,11.6l23.14,185.54s23.78,143.4-139.32,149.67c-6.21.24-11.48-4.55-11.81-10.76l-17.42-322.09c-.41-7.58,5.63-13.95,13.22-13.95h119.06Z"/>
    <circle class="cls-1" cx="317.5" cy="1025.2" r="238.5"/>
    <circle class="cls-1" cx="1263.5" cy="922.2" r="345.5"/>
  </g>
  <g id="_2" data-name="2">
    <circle class="cls-2" cx="317.5" cy="1025.2" r="102.5"/>
    <circle class="cls-2" cx="1264" cy="916.7" r="169"/>
  </g>
</svg>