<?xml version="1.0" encoding="UTF-8"?>
<svg id="_1" data-name="1" xmlns="http://www.w3.org/2000/svg" viewBox="0 0 1416 697.82">
  <defs>
    <style>
      .cls-1 {
        stroke-width: 0px;
      }
    </style>
  </defs>
  <g>
    <g>
      <g>
        <circle class="cls-1" cx="402.35" cy="563.26" r="42.29"/>
        <path class="cls-1" d="M402.35,428.7c-74.32,0-134.56,60.25-134.56,134.56s60.25,134.56,134.56,134.56,134.56-60.25,134.56-134.56-60.25-134.56-134.56-134.56ZM402.35,632.09c-38.01,0-68.82-30.81-68.82-68.82s30.81-68.82,68.82-68.82,68.82,30.81,68.82,68.82-30.81,68.82-68.82,68.82Z"/>
      </g>
      <g>
        <circle class="cls-1" cx="1217.64" cy="563.26" r="42.29"/>
        <path class="cls-1" d="M1217.64,428.7c-74.32,0-134.56,60.25-134.56,134.56s60.25,134.56,134.56,134.56,134.56-60.25,134.56-134.56-60.25-134.56-134.56-134.56ZM1217.64,632.09c-38.01,0-68.82-30.81-68.82-68.82s30.81-68.82,68.82-68.82,68.82,30.81,68.82,68.82-30.81,68.82-68.82,68.82Z"/>
      </g>
    </g>
    <g>
      <g>
        <g>
          <path class="cls-1" d="M233.16,428.7h77.95c-18.4,12.51-34.12,28.69-46.07,47.49h-24.5c-4.07,0-7.38-3.3-7.38-7.38v-40.12Z"/>
          <path class="cls-1" d="M571.55,428.7v40.12c0,4.07-3.3,7.38-7.38,7.38h-24.5c-11.95-18.8-27.66-34.99-46.07-47.49h77.95Z"/>
        </g>
        <g>
          <path class="cls-1" d="M770.36,428.7h356.04c-18.4,12.51-34.12,28.69-46.07,47.49h-302.59c-4.07,0-7.38-3.3-7.38-7.38v-40.12Z"/>
          <path class="cls-1" d="M1387.77,428.7v47.49h-32.81c-11.95-18.8-27.66-34.99-46.07-47.49h78.88Z"/>
        </g>
      </g>
      <g>
        <path class="cls-1" d="M1383.81,428.7h5.92c4.38,0,7.93,3.55,7.93,7.93v150.38h-7.75c-3.37,0-6.1-2.73-6.1-6.1v-152.21h0Z"/>
        <path class="cls-1" d="M1391.73,541.5h12.55c2.9,0,5.26,2.36,5.26,5.26v35c0,2.9-2.36,5.26-5.26,5.26h-12.55v-45.51h0Z"/>
      </g>
    </g>
  </g>
  <rect class="cls-1" x="226.7" y="218.56" width="1189.3" height="182.06" rx="6.08" ry="6.08"/>
  <path class="cls-1" d="M231.17,0h16.78c2.47,0,4.47,2,4.47,4.47v243.42h-25.73V4.47c0-2.47,2-4.47,4.47-4.47Z"/>
  <path class="cls-1" d="M619.03,4h16.78c2.47,0,4.47,2,4.47,4.47v239.42h-25.73V8.47c0-2.47,2-4.47,4.47-4.47Z"/>
  <path class="cls-1" d="M1006.89,1h16.78c2.47,0,4.47,2,4.47,4.47v242.42h-25.73V5.47c0-2.47,2-4.47,4.47-4.47Z"/>
  <path class="cls-1" d="M1394.75,1h16.78c2.47,0,4.47,2,4.47,4.47v242.42h-25.73V5.47c0-2.47,2-4.47,4.47-4.47Z"/>
  <path class="cls-1" d="M1394.75,0h16.78c2.47,0,4.47,2,4.47,4.47v242.42h-25.73V4.47c0-2.47,2-4.47,4.47-4.47Z"/>
  <rect class="cls-1" x="239.56" y=".53" width="1163.57" height="41.11"/>
  <rect class="cls-1" x="239.56" y="73.98" width="1163.57" height="41.11"/>
  <rect class="cls-1" x="239.56" y="147.42" width="1163.57" height="41.11"/>
  <path class="cls-1" d="M256.39,493.75c-2.89,9.14-5.23,18.78-6.96,28.77l-249.43-2.87c.29-5.76.45-11.6.45-17.47,0-1.82-.01-3.66-.05-5.48l256-2.95Z"/>
  <polyline class="cls-1" points="777.74 476.19 770.36 428.7 571.55 428.7 564.17 476.19"/>
</svg>