<svg height="70" viewBox="2619 506 120 120" width="70" xmlns="http://www.w3.org/2000/svg"><circle cx="2679" cy="566" fill="#27d045" r="60"/><g transform="translate(2554 459)"><g fill="none" stroke="#fff" stroke-width="5"><circle cx="125.5" cy="106.5" r="31.5" stroke="none"/><circle cx="125.5" cy="106.5" fill="none" r="29"/></g><path d="m1424 191-4.6 16.3 16.9-4.7.9-5.2-11 3.5 2.9-10.5z" fill="#fff" transform="translate(-1325 -68)"/><path d="m1266 90c0-.1 3.5-11.7 3.5-11.7l8.4 7.9z" fill="#27d045" transform="translate(-1165 43)"/><path d="m1439.3 160.6a9.4 9.4 0 0 0 -3.9 6.1c-.5 3.9 1.9 7.9 1.9 7.9a50.876 50.876 0 0 0 8.6 9.8 30.181 30.181 0 0 0 9.6 5.1 11.378 11.378 0 0 0 6.4.6 9.167 9.167 0 0 0 4.8-3.2 9.851 9.851 0 0 0 .6-2.2 5.868 5.868 0 0 0 0-2c-.1-.7-7.3-4-8-3.8s-1.3 1.5-2.1 2.6-1.1 1.6-1.9 1.6-4.3-1.4-7.6-4.4a15.875 15.875 0 0 1 -4.3-6s.6-.7 1.4-1.8a5.664 5.664 0 0 0 1.3-2.4c0-.5-2.8-7.6-3.5-7.9a11.852 11.852 0 0 0 -3.3 0z" fill="#fff" transform="translate(-1326.332 -68.467)"/></g></svg>