<svg fill="none" height="37" viewBox="0 0 37 37" width="37" xmlns="http://www.w3.org/2000/svg"><path d="m32.8703 25.5404c-.3013 1.5821-1.5821 2.7875-3.1642 3.0135-2.4861.3767-6.6297.8287-11.3006.8287-4.5956 0-8.73923-.452-11.30072-.8287-1.58209-.226-2.86284-1.4314-3.16419-3.0135-.30135-1.7328-.6027-4.2943-.6027-7.4585s.30135-5.7256.6027-7.4584c.30135-1.58211 1.5821-2.78752 3.16419-3.01353 2.48615-.37669 6.62972-.82872 11.30072-.82872 4.6709 0 8.7391.45203 11.3006.82872 1.5821.22601 2.8629 1.43142 3.1642 3.01353.3014 1.7328.6781 4.2942.6781 7.4584-.0754 3.1642-.3767 5.7257-.6781 7.4585z" fill="#ff3d00"/><path d="m15.3926 23.3539v-10.5473l9.0405 5.2737z" fill="#fff"/></svg>